<svg width="1920" height="82" viewBox="0 0 1920 82" fill="none" xmlns="http://www.w3.org/2000/svg">
<path d="M0 0H1920V82H0V0Z" fill="#F7F7F4" fill-opacity="0.9"/>
<path d="M885.374 36.0059H888.197C889.523 36.0059 890.483 36.2041 891.075 36.6006C891.668 36.9971 891.964 37.6237 891.964 38.4805C891.964 39.0729 891.798 39.5628 891.465 39.9502C891.137 40.333 890.656 40.5814 890.022 40.6953V40.7637C891.54 41.0234 892.299 41.821 892.299 43.1562C892.299 44.0495 891.996 44.7467 891.39 45.248C890.788 45.7493 889.945 46 888.86 46H885.374V36.0059ZM886.536 40.2852H888.45C889.271 40.2852 889.861 40.1576 890.221 39.9023C890.581 39.6426 890.761 39.2074 890.761 38.5967C890.761 38.0361 890.56 37.6328 890.159 37.3867C889.758 37.1361 889.12 37.0107 888.245 37.0107H886.536V40.2852ZM886.536 41.2695V45.0088H888.621C889.428 45.0088 890.034 44.8538 890.439 44.5439C890.85 44.2295 891.055 43.7396 891.055 43.0742C891.055 42.4544 890.845 41.9987 890.426 41.707C890.011 41.4154 889.378 41.2695 888.525 41.2695H886.536ZM895.916 46H894.781V35.3633H895.916V46ZM905.289 42.2471C905.289 43.4684 904.981 44.4232 904.366 45.1113C903.751 45.7949 902.901 46.1367 901.816 46.1367C901.146 46.1367 900.552 45.9795 900.032 45.665C899.513 45.3506 899.112 44.8994 898.829 44.3115C898.547 43.7236 898.405 43.0355 898.405 42.2471C898.405 41.0257 898.711 40.0755 899.321 39.3965C899.932 38.7129 900.78 38.3711 901.864 38.3711C902.912 38.3711 903.744 38.7197 904.359 39.417C904.979 40.1143 905.289 41.0576 905.289 42.2471ZM899.581 42.2471C899.581 43.2041 899.772 43.9333 900.155 44.4346C900.538 44.9359 901.101 45.1865 901.844 45.1865C902.587 45.1865 903.149 44.9382 903.532 44.4414C903.92 43.9401 904.113 43.2087 904.113 42.2471C904.113 41.2946 903.92 40.5723 903.532 40.0801C903.149 39.5833 902.582 39.335 901.83 39.335C901.087 39.335 900.527 39.5788 900.148 40.0664C899.77 40.554 899.581 41.2809 899.581 42.2471ZM913.917 38.5078V39.2256L912.529 39.3896C912.657 39.5492 912.771 39.7588 912.871 40.0186C912.971 40.2738 913.021 40.5632 913.021 40.8867C913.021 41.6204 912.771 42.2061 912.27 42.6436C911.768 43.0811 911.08 43.2998 910.205 43.2998C909.982 43.2998 909.772 43.2816 909.576 43.2451C909.093 43.5003 908.852 43.8216 908.852 44.209C908.852 44.4141 908.936 44.5667 909.104 44.667C909.273 44.7627 909.562 44.8105 909.973 44.8105H911.299C912.11 44.8105 912.732 44.9814 913.165 45.3232C913.603 45.665 913.821 46.1618 913.821 46.8135C913.821 47.6429 913.489 48.2741 912.823 48.707C912.158 49.1445 911.187 49.3633 909.911 49.3633C908.931 49.3633 908.175 49.181 907.642 48.8164C907.113 48.4518 906.849 47.9368 906.849 47.2715C906.849 46.8158 906.994 46.4215 907.286 46.0889C907.578 45.7562 907.988 45.5306 908.517 45.4121C908.325 45.3255 908.163 45.1911 908.031 45.0088C907.904 44.8265 907.84 44.6146 907.84 44.373C907.84 44.0996 907.913 43.8604 908.059 43.6553C908.204 43.4502 908.435 43.252 908.749 43.0605C908.362 42.901 908.045 42.6299 907.799 42.2471C907.557 41.8643 907.437 41.4268 907.437 40.9346C907.437 40.1143 907.683 39.4831 908.175 39.041C908.667 38.5944 909.364 38.3711 910.267 38.3711C910.659 38.3711 911.012 38.4167 911.326 38.5078H913.917ZM907.942 47.2578C907.942 47.6634 908.113 47.971 908.455 48.1807C908.797 48.3903 909.287 48.4951 909.925 48.4951C910.877 48.4951 911.581 48.3516 912.037 48.0645C912.497 47.7819 912.728 47.3968 912.728 46.9092C912.728 46.5036 912.602 46.221 912.352 46.0615C912.101 45.9066 911.629 45.8291 910.937 45.8291H909.576C909.061 45.8291 908.66 45.9521 908.373 46.1982C908.086 46.4443 907.942 46.7975 907.942 47.2578ZM908.558 40.9072C908.558 41.4313 908.706 41.8278 909.002 42.0967C909.298 42.3656 909.711 42.5 910.239 42.5C911.347 42.5 911.9 41.9622 911.9 40.8867C911.9 39.7611 911.34 39.1982 910.219 39.1982C909.686 39.1982 909.275 39.3418 908.988 39.6289C908.701 39.916 908.558 40.3421 908.558 40.9072Z" fill="#414141"/>
<path d="M794.653 36.9014C793.555 36.9014 792.687 37.2682 792.049 38.002C791.415 38.7311 791.099 39.7314 791.099 41.0029C791.099 42.3109 791.404 43.3226 792.015 44.0381C792.63 44.749 793.505 45.1045 794.64 45.1045C795.337 45.1045 796.132 44.9792 797.025 44.7285V45.7471C796.333 46.0068 795.478 46.1367 794.462 46.1367C792.99 46.1367 791.853 45.6901 791.051 44.7969C790.253 43.9036 789.854 42.6344 789.854 40.9893C789.854 39.9593 790.046 39.057 790.429 38.2822C790.816 37.5075 791.372 36.9105 792.097 36.4912C792.826 36.0719 793.683 35.8623 794.667 35.8623C795.715 35.8623 796.631 36.0537 797.415 36.4365L796.923 37.4346C796.166 37.0791 795.41 36.9014 794.653 36.9014ZM804.143 46L803.917 44.9336H803.862C803.489 45.403 803.115 45.722 802.741 45.8906C802.372 46.0547 801.91 46.1367 801.354 46.1367C800.611 46.1367 800.027 45.9453 799.604 45.5625C799.184 45.1797 798.975 44.6351 798.975 43.9287C798.975 42.4157 800.185 41.6227 802.604 41.5498L803.876 41.5088V41.0439C803.876 40.4561 803.748 40.0231 803.493 39.7451C803.243 39.4626 802.839 39.3213 802.283 39.3213C801.659 39.3213 800.952 39.5127 800.164 39.8955L799.815 39.0273C800.185 38.8268 800.588 38.6696 801.025 38.5557C801.467 38.4417 801.91 38.3848 802.352 38.3848C803.245 38.3848 803.906 38.583 804.334 38.9795C804.767 39.376 804.983 40.0117 804.983 40.8867V46H804.143ZM801.579 45.2002C802.285 45.2002 802.839 45.0065 803.24 44.6191C803.646 44.2318 803.849 43.6895 803.849 42.9922V42.3154L802.714 42.3633C801.812 42.3952 801.16 42.5365 800.759 42.7871C800.362 43.0332 800.164 43.4183 800.164 43.9424C800.164 44.3525 800.287 44.6647 800.533 44.8789C800.784 45.0931 801.132 45.2002 801.579 45.2002ZM811.246 38.3711C811.579 38.3711 811.877 38.3984 812.142 38.4531L811.984 39.5059C811.674 39.4375 811.401 39.4033 811.164 39.4033C810.558 39.4033 810.038 39.6494 809.605 40.1416C809.177 40.6338 808.963 41.2467 808.963 41.9805V46H807.828V38.5078H808.765L808.895 39.8955H808.949C809.227 39.4079 809.562 39.0319 809.954 38.7676C810.346 38.5033 810.777 38.3711 811.246 38.3711ZM817.208 46.1367C816.101 46.1367 815.226 45.7995 814.583 45.125C813.945 44.4505 813.626 43.514 813.626 42.3154C813.626 41.1077 813.922 40.1484 814.515 39.4375C815.112 38.7266 815.911 38.3711 816.914 38.3711C817.853 38.3711 818.596 38.681 819.143 39.3008C819.689 39.916 819.963 40.7295 819.963 41.7412V42.459H814.802C814.825 43.3385 815.046 44.0062 815.465 44.4619C815.889 44.9176 816.483 45.1455 817.249 45.1455C818.056 45.1455 818.853 44.9769 819.642 44.6396V45.6514C819.241 45.8245 818.86 45.9476 818.5 46.0205C818.145 46.098 817.714 46.1367 817.208 46.1367ZM816.9 39.3213C816.299 39.3213 815.818 39.5173 815.458 39.9092C815.103 40.3011 814.893 40.8434 814.829 41.5361H818.746C818.746 40.8206 818.587 40.2738 818.268 39.8955C817.949 39.5127 817.493 39.3213 816.9 39.3213ZM825.569 46.1367C824.462 46.1367 823.587 45.7995 822.944 45.125C822.306 44.4505 821.987 43.514 821.987 42.3154C821.987 41.1077 822.284 40.1484 822.876 39.4375C823.473 38.7266 824.273 38.3711 825.275 38.3711C826.214 38.3711 826.957 38.681 827.504 39.3008C828.051 39.916 828.324 40.7295 828.324 41.7412V42.459H823.163C823.186 43.3385 823.407 44.0062 823.826 44.4619C824.25 44.9176 824.845 45.1455 825.61 45.1455C826.417 45.1455 827.215 44.9769 828.003 44.6396V45.6514C827.602 45.8245 827.221 45.9476 826.861 46.0205C826.506 46.098 826.075 46.1367 825.569 46.1367ZM825.262 39.3213C824.66 39.3213 824.179 39.5173 823.819 39.9092C823.464 40.3011 823.254 40.8434 823.19 41.5361H827.107C827.107 40.8206 826.948 40.2738 826.629 39.8955C826.31 39.5127 825.854 39.3213 825.262 39.3213ZM834.184 38.3711C834.516 38.3711 834.815 38.3984 835.079 38.4531L834.922 39.5059C834.612 39.4375 834.339 39.4033 834.102 39.4033C833.495 39.4033 832.976 39.6494 832.543 40.1416C832.115 40.6338 831.9 41.2467 831.9 41.9805V46H830.766V38.5078H831.702L831.832 39.8955H831.887C832.165 39.4079 832.5 39.0319 832.892 38.7676C833.284 38.5033 833.714 38.3711 834.184 38.3711ZM841.813 43.9561C841.813 44.6533 841.554 45.1911 841.034 45.5693C840.515 45.9476 839.785 46.1367 838.847 46.1367C837.853 46.1367 837.078 45.9795 836.522 45.665V44.6123C836.882 44.7946 837.268 44.9382 837.678 45.043C838.092 45.1478 838.491 45.2002 838.874 45.2002C839.466 45.2002 839.922 45.1068 840.241 44.9199C840.56 44.7285 840.72 44.4391 840.72 44.0518C840.72 43.7601 840.592 43.5117 840.337 43.3066C840.086 43.097 839.594 42.8509 838.86 42.5684C838.163 42.3086 837.666 42.083 837.37 41.8916C837.078 41.6956 836.86 41.4746 836.714 41.2285C836.573 40.9824 836.502 40.6885 836.502 40.3467C836.502 39.736 836.75 39.2552 837.247 38.9043C837.744 38.5488 838.425 38.3711 839.291 38.3711C840.098 38.3711 840.886 38.5352 841.656 38.8633L841.253 39.7861C840.501 39.4762 839.82 39.3213 839.209 39.3213C838.671 39.3213 838.266 39.4056 837.992 39.5742C837.719 39.7428 837.582 39.9753 837.582 40.2715C837.582 40.472 837.632 40.6429 837.732 40.7842C837.837 40.9255 838.004 41.0599 838.231 41.1875C838.459 41.3151 838.897 41.4997 839.544 41.7412C840.433 42.0648 841.032 42.3906 841.342 42.7188C841.656 43.0469 841.813 43.4593 841.813 43.9561Z" fill="#414141"/>
<path d="M690.656 46L689.412 42.8213H685.406L684.176 46H683L686.951 35.9648H687.929L691.859 46H690.656ZM689.05 41.7754L687.888 38.6787C687.737 38.2868 687.582 37.806 687.423 37.2363C687.323 37.6738 687.179 38.1546 686.992 38.6787L685.816 41.7754H689.05ZM697.049 38.3848C698.033 38.3848 698.797 38.722 699.339 39.3965C699.886 40.0664 700.159 41.0166 700.159 42.2471C700.159 43.4775 699.883 44.4346 699.332 45.1182C698.785 45.7972 698.024 46.1367 697.049 46.1367C696.561 46.1367 696.115 46.0479 695.709 45.8701C695.308 45.6878 694.971 45.4098 694.697 45.0361H694.615L694.376 46H693.562V35.3633H694.697V37.9473C694.697 38.526 694.679 39.0456 694.643 39.5059H694.697C695.226 38.7585 696.01 38.3848 697.049 38.3848ZM696.885 39.335C696.11 39.335 695.552 39.5583 695.21 40.0049C694.868 40.4469 694.697 41.1943 694.697 42.2471C694.697 43.2998 694.873 44.054 695.224 44.5098C695.575 44.9609 696.137 45.1865 696.912 45.1865C697.609 45.1865 698.129 44.9336 698.471 44.4277C698.812 43.9173 698.983 43.1859 698.983 42.2334C698.983 41.2581 698.812 40.5312 698.471 40.0527C698.129 39.5742 697.6 39.335 696.885 39.335ZM709.115 42.2471C709.115 43.4684 708.808 44.4232 708.192 45.1113C707.577 45.7949 706.727 46.1367 705.643 46.1367C704.973 46.1367 704.378 45.9795 703.858 45.665C703.339 45.3506 702.938 44.8994 702.655 44.3115C702.373 43.7236 702.231 43.0355 702.231 42.2471C702.231 41.0257 702.537 40.0755 703.147 39.3965C703.758 38.7129 704.606 38.3711 705.69 38.3711C706.739 38.3711 707.57 38.7197 708.186 39.417C708.805 40.1143 709.115 41.0576 709.115 42.2471ZM703.407 42.2471C703.407 43.2041 703.599 43.9333 703.981 44.4346C704.364 44.9359 704.927 45.1865 705.67 45.1865C706.413 45.1865 706.976 44.9382 707.358 44.4414C707.746 43.9401 707.939 43.2087 707.939 42.2471C707.939 41.2946 707.746 40.5723 707.358 40.0801C706.976 39.5833 706.408 39.335 705.656 39.335C704.913 39.335 704.353 39.5788 703.975 40.0664C703.596 40.554 703.407 41.2809 703.407 42.2471ZM712.678 38.5078V43.3682C712.678 43.9788 712.817 44.4346 713.095 44.7354C713.373 45.0361 713.808 45.1865 714.4 45.1865C715.184 45.1865 715.756 44.9723 716.116 44.5439C716.481 44.1156 716.663 43.416 716.663 42.4453V38.5078H717.798V46H716.861L716.697 44.9951H716.636C716.403 45.3643 716.08 45.6468 715.665 45.8428C715.255 46.0387 714.785 46.1367 714.257 46.1367C713.345 46.1367 712.662 45.9202 712.206 45.4873C711.755 45.0544 711.529 44.3617 711.529 43.4092V38.5078H712.678ZM723.131 45.2002C723.331 45.2002 723.525 45.1865 723.712 45.1592C723.899 45.1273 724.047 45.0954 724.156 45.0635V45.9316C724.033 45.9909 723.851 46.0387 723.609 46.0752C723.372 46.1162 723.158 46.1367 722.967 46.1367C721.518 46.1367 720.793 45.3734 720.793 43.8467V39.3896H719.72V38.8428L720.793 38.3711L721.271 36.7715H721.928V38.5078H724.102V39.3896H721.928V43.7988C721.928 44.25 722.035 44.5964 722.249 44.8379C722.463 45.0794 722.757 45.2002 723.131 45.2002ZM738.015 36.0059V42.4727C738.015 43.612 737.671 44.5075 736.982 45.1592C736.294 45.8109 735.349 46.1367 734.146 46.1367C732.942 46.1367 732.01 45.8086 731.35 45.1523C730.693 44.4961 730.365 43.5938 730.365 42.4453V36.0059H731.527V42.5273C731.527 43.3613 731.755 44.0016 732.211 44.4482C732.667 44.8949 733.337 45.1182 734.221 45.1182C735.064 45.1182 735.713 44.8949 736.169 44.4482C736.625 43.9971 736.853 43.3522 736.853 42.5137V36.0059H738.015ZM745.829 43.9561C745.829 44.6533 745.569 45.1911 745.05 45.5693C744.53 45.9476 743.801 46.1367 742.862 46.1367C741.869 46.1367 741.094 45.9795 740.538 45.665V44.6123C740.898 44.7946 741.283 44.9382 741.693 45.043C742.108 45.1478 742.507 45.2002 742.89 45.2002C743.482 45.2002 743.938 45.1068 744.257 44.9199C744.576 44.7285 744.735 44.4391 744.735 44.0518C744.735 43.7601 744.608 43.5117 744.353 43.3066C744.102 43.097 743.61 42.8509 742.876 42.5684C742.179 42.3086 741.682 42.083 741.386 41.8916C741.094 41.6956 740.875 41.4746 740.729 41.2285C740.588 40.9824 740.518 40.6885 740.518 40.3467C740.518 39.736 740.766 39.2552 741.263 38.9043C741.759 38.5488 742.441 38.3711 743.307 38.3711C744.113 38.3711 744.902 38.5352 745.672 38.8633L745.269 39.7861C744.517 39.4762 743.835 39.3213 743.225 39.3213C742.687 39.3213 742.281 39.4056 742.008 39.5742C741.734 39.7428 741.598 39.9753 741.598 40.2715C741.598 40.472 741.648 40.6429 741.748 40.7842C741.853 40.9255 742.019 41.0599 742.247 41.1875C742.475 41.3151 742.912 41.4997 743.56 41.7412C744.448 42.0648 745.048 42.3906 745.357 42.7188C745.672 43.0469 745.829 43.4593 745.829 43.9561Z" fill="#414141"/>
<path d="M601.711 38.918C601.711 39.9297 601.365 40.709 600.672 41.2559C599.984 41.7982 598.997 42.0693 597.712 42.0693H596.536V46H595.374V36.0059H597.965C600.462 36.0059 601.711 36.9766 601.711 38.918ZM596.536 41.0713H597.582C598.612 41.0713 599.357 40.9049 599.817 40.5723C600.278 40.2396 600.508 39.7064 600.508 38.9727C600.508 38.3118 600.291 37.8197 599.858 37.4961C599.425 37.1725 598.751 37.0107 597.835 37.0107H596.536V41.0713ZM607.557 38.3711C607.889 38.3711 608.188 38.3984 608.452 38.4531L608.295 39.5059C607.985 39.4375 607.712 39.4033 607.475 39.4033C606.868 39.4033 606.349 39.6494 605.916 40.1416C605.488 40.6338 605.273 41.2467 605.273 41.9805V46H604.139V38.5078H605.075L605.205 39.8955H605.26C605.538 39.4079 605.873 39.0319 606.265 38.7676C606.657 38.5033 607.087 38.3711 607.557 38.3711ZM611.488 46H610.354V38.5078H611.488V46ZM610.258 36.4775C610.258 36.2178 610.322 36.0286 610.449 35.9102C610.577 35.7871 610.736 35.7256 610.928 35.7256C611.11 35.7256 611.267 35.7871 611.399 35.9102C611.532 36.0332 611.598 36.2223 611.598 36.4775C611.598 36.7327 611.532 36.9242 611.399 37.0518C611.267 37.1748 611.11 37.2363 610.928 37.2363C610.736 37.2363 610.577 37.1748 610.449 37.0518C610.322 36.9242 610.258 36.7327 610.258 36.4775ZM617.389 46.1367C616.304 46.1367 615.463 45.804 614.866 45.1387C614.274 44.4688 613.978 43.5231 613.978 42.3018C613.978 41.0485 614.278 40.0801 614.88 39.3965C615.486 38.7129 616.347 38.3711 617.464 38.3711C617.824 38.3711 618.184 38.4098 618.544 38.4873C618.904 38.5648 619.187 38.6559 619.392 38.7607L619.043 39.7246C618.792 39.6243 618.519 39.5423 618.223 39.4785C617.926 39.4102 617.664 39.376 617.437 39.376C615.914 39.376 615.153 40.3467 615.153 42.2881C615.153 43.2087 615.338 43.915 615.707 44.4072C616.081 44.8994 616.632 45.1455 617.361 45.1455C617.986 45.1455 618.626 45.0111 619.282 44.7422V45.7471C618.781 46.0068 618.15 46.1367 617.389 46.1367ZM622.701 46H621.566V38.5078H622.701V46ZM621.471 36.4775C621.471 36.2178 621.535 36.0286 621.662 35.9102C621.79 35.7871 621.949 35.7256 622.141 35.7256C622.323 35.7256 622.48 35.7871 622.612 35.9102C622.744 36.0332 622.811 36.2223 622.811 36.4775C622.811 36.7327 622.744 36.9242 622.612 37.0518C622.48 37.1748 622.323 37.2363 622.141 37.2363C621.949 37.2363 621.79 37.1748 621.662 37.0518C621.535 36.9242 621.471 36.7327 621.471 36.4775ZM630.734 46V41.1533C630.734 40.5426 630.595 40.0869 630.317 39.7861C630.039 39.4854 629.604 39.335 629.012 39.335C628.228 39.335 627.654 39.5469 627.289 39.9707C626.924 40.3945 626.742 41.0941 626.742 42.0693V46H625.607V38.5078H626.53L626.715 39.5332H626.77C627.002 39.1641 627.328 38.8792 627.747 38.6787C628.166 38.4736 628.633 38.3711 629.148 38.3711C630.051 38.3711 630.73 38.5898 631.186 39.0273C631.641 39.4603 631.869 40.1553 631.869 41.1123V46H630.734ZM640.839 38.5078V39.2256L639.451 39.3896C639.579 39.5492 639.693 39.7588 639.793 40.0186C639.893 40.2738 639.943 40.5632 639.943 40.8867C639.943 41.6204 639.693 42.2061 639.191 42.6436C638.69 43.0811 638.002 43.2998 637.127 43.2998C636.904 43.2998 636.694 43.2816 636.498 43.2451C636.015 43.5003 635.773 43.8216 635.773 44.209C635.773 44.4141 635.858 44.5667 636.026 44.667C636.195 44.7627 636.484 44.8105 636.895 44.8105H638.221C639.032 44.8105 639.654 44.9814 640.087 45.3232C640.524 45.665 640.743 46.1618 640.743 46.8135C640.743 47.6429 640.41 48.2741 639.745 48.707C639.08 49.1445 638.109 49.3633 636.833 49.3633C635.853 49.3633 635.097 49.181 634.563 48.8164C634.035 48.4518 633.771 47.9368 633.771 47.2715C633.771 46.8158 633.916 46.4215 634.208 46.0889C634.5 45.7562 634.91 45.5306 635.438 45.4121C635.247 45.3255 635.085 45.1911 634.953 45.0088C634.826 44.8265 634.762 44.6146 634.762 44.373C634.762 44.0996 634.835 43.8604 634.98 43.6553C635.126 43.4502 635.356 43.252 635.671 43.0605C635.284 42.901 634.967 42.6299 634.721 42.2471C634.479 41.8643 634.358 41.4268 634.358 40.9346C634.358 40.1143 634.604 39.4831 635.097 39.041C635.589 38.5944 636.286 38.3711 637.188 38.3711C637.58 38.3711 637.934 38.4167 638.248 38.5078H640.839ZM634.864 47.2578C634.864 47.6634 635.035 47.971 635.377 48.1807C635.719 48.3903 636.209 48.4951 636.847 48.4951C637.799 48.4951 638.503 48.3516 638.959 48.0645C639.419 47.7819 639.649 47.3968 639.649 46.9092C639.649 46.5036 639.524 46.221 639.273 46.0615C639.023 45.9066 638.551 45.8291 637.858 45.8291H636.498C635.983 45.8291 635.582 45.9521 635.295 46.1982C635.008 46.4443 634.864 46.7975 634.864 47.2578ZM635.479 40.9072C635.479 41.4313 635.628 41.8278 635.924 42.0967C636.22 42.3656 636.632 42.5 637.161 42.5C638.269 42.5 638.822 41.9622 638.822 40.8867C638.822 39.7611 638.262 39.1982 637.141 39.1982C636.607 39.1982 636.197 39.3418 635.91 39.6289C635.623 39.916 635.479 40.3421 635.479 40.9072Z" fill="#414141"/>
<path d="M471.049 40.9893C471.049 42.5889 470.643 43.8467 469.832 44.7627C469.025 45.6787 467.902 46.1367 466.462 46.1367C464.99 46.1367 463.853 45.6878 463.051 44.79C462.253 43.8877 461.854 42.6162 461.854 40.9756C461.854 39.3486 462.256 38.0885 463.058 37.1953C463.86 36.2975 464.999 35.8486 466.476 35.8486C467.911 35.8486 469.032 36.3044 469.839 37.2158C470.646 38.1273 471.049 39.3851 471.049 40.9893ZM463.085 40.9893C463.085 42.3428 463.372 43.3704 463.946 44.0723C464.525 44.7695 465.364 45.1182 466.462 45.1182C467.569 45.1182 468.406 44.7695 468.971 44.0723C469.536 43.375 469.818 42.3473 469.818 40.9893C469.818 39.6449 469.536 38.6263 468.971 37.9336C468.41 37.2363 467.578 36.8877 466.476 36.8877C465.368 36.8877 464.525 37.2386 463.946 37.9404C463.372 38.6377 463.085 39.654 463.085 40.9893ZM474.68 38.5078V43.3682C474.68 43.9788 474.819 44.4346 475.097 44.7354C475.375 45.0361 475.81 45.1865 476.402 45.1865C477.186 45.1865 477.758 44.9723 478.118 44.5439C478.483 44.1156 478.665 43.416 478.665 42.4453V38.5078H479.8V46H478.863L478.699 44.9951H478.638C478.405 45.3643 478.082 45.6468 477.667 45.8428C477.257 46.0387 476.787 46.1367 476.259 46.1367C475.347 46.1367 474.664 45.9202 474.208 45.4873C473.757 45.0544 473.531 44.3617 473.531 43.4092V38.5078H474.68ZM486.131 38.3711C486.464 38.3711 486.762 38.3984 487.026 38.4531L486.869 39.5059C486.559 39.4375 486.286 39.4033 486.049 39.4033C485.443 39.4033 484.923 39.6494 484.49 40.1416C484.062 40.6338 483.848 41.2467 483.848 41.9805V46H482.713V38.5078H483.649L483.779 39.8955H483.834C484.112 39.4079 484.447 39.0319 484.839 38.7676C485.231 38.5033 485.661 38.3711 486.131 38.3711ZM494.397 46H493.235V36.0059H498.807V37.0381H494.397V40.6953H498.54V41.7275H494.397V46ZM503.962 46.1367C502.854 46.1367 501.979 45.7995 501.337 45.125C500.699 44.4505 500.38 43.514 500.38 42.3154C500.38 41.1077 500.676 40.1484 501.269 39.4375C501.866 38.7266 502.665 38.3711 503.668 38.3711C504.607 38.3711 505.35 38.681 505.896 39.3008C506.443 39.916 506.717 40.7295 506.717 41.7412V42.459H501.556C501.578 43.3385 501.799 44.0062 502.219 44.4619C502.643 44.9176 503.237 45.1455 504.003 45.1455C504.81 45.1455 505.607 44.9769 506.396 44.6396V45.6514C505.994 45.8245 505.614 45.9476 505.254 46.0205C504.898 46.098 504.468 46.1367 503.962 46.1367ZM503.654 39.3213C503.053 39.3213 502.572 39.5173 502.212 39.9092C501.856 40.3011 501.647 40.8434 501.583 41.5361H505.5C505.5 40.8206 505.34 40.2738 505.021 39.8955C504.702 39.5127 504.247 39.3213 503.654 39.3213ZM513.766 46L513.54 44.9336H513.485C513.112 45.403 512.738 45.722 512.364 45.8906C511.995 46.0547 511.533 46.1367 510.977 46.1367C510.234 46.1367 509.65 45.9453 509.227 45.5625C508.807 45.1797 508.598 44.6351 508.598 43.9287C508.598 42.4157 509.808 41.6227 512.228 41.5498L513.499 41.5088V41.0439C513.499 40.4561 513.371 40.0231 513.116 39.7451C512.866 39.4626 512.462 39.3213 511.906 39.3213C511.282 39.3213 510.576 39.5127 509.787 39.8955L509.438 39.0273C509.808 38.8268 510.211 38.6696 510.648 38.5557C511.09 38.4417 511.533 38.3848 511.975 38.3848C512.868 38.3848 513.529 38.583 513.957 38.9795C514.39 39.376 514.606 40.0117 514.606 40.8867V46H513.766ZM511.202 45.2002C511.909 45.2002 512.462 45.0065 512.863 44.6191C513.269 44.2318 513.472 43.6895 513.472 42.9922V42.3154L512.337 42.3633C511.435 42.3952 510.783 42.5365 510.382 42.7871C509.985 43.0332 509.787 43.4183 509.787 43.9424C509.787 44.3525 509.91 44.6647 510.156 44.8789C510.407 45.0931 510.756 45.2002 511.202 45.2002ZM519.871 45.2002C520.072 45.2002 520.265 45.1865 520.452 45.1592C520.639 45.1273 520.787 45.0954 520.896 45.0635V45.9316C520.773 45.9909 520.591 46.0387 520.35 46.0752C520.113 46.1162 519.898 46.1367 519.707 46.1367C518.258 46.1367 517.533 45.3734 517.533 43.8467V39.3896H516.46V38.8428L517.533 38.3711L518.012 36.7715H518.668V38.5078H520.842V39.3896H518.668V43.7988C518.668 44.25 518.775 44.5964 518.989 44.8379C519.203 45.0794 519.497 45.2002 519.871 45.2002ZM523.967 38.5078V43.3682C523.967 43.9788 524.106 44.4346 524.384 44.7354C524.662 45.0361 525.097 45.1865 525.689 45.1865C526.473 45.1865 527.045 44.9723 527.405 44.5439C527.77 44.1156 527.952 43.416 527.952 42.4453V38.5078H529.087V46H528.15L527.986 44.9951H527.925C527.692 45.3643 527.369 45.6468 526.954 45.8428C526.544 46.0387 526.075 46.1367 525.546 46.1367C524.634 46.1367 523.951 45.9202 523.495 45.4873C523.044 45.0544 522.818 44.3617 522.818 43.4092V38.5078H523.967ZM535.418 38.3711C535.751 38.3711 536.049 38.3984 536.313 38.4531L536.156 39.5059C535.846 39.4375 535.573 39.4033 535.336 39.4033C534.73 39.4033 534.21 39.6494 533.777 40.1416C533.349 40.6338 533.135 41.2467 533.135 41.9805V46H532V38.5078H532.937L533.066 39.8955H533.121C533.399 39.4079 533.734 39.0319 534.126 38.7676C534.518 38.5033 534.949 38.3711 535.418 38.3711ZM541.38 46.1367C540.272 46.1367 539.397 45.7995 538.755 45.125C538.117 44.4505 537.798 43.514 537.798 42.3154C537.798 41.1077 538.094 40.1484 538.687 39.4375C539.284 38.7266 540.083 38.3711 541.086 38.3711C542.025 38.3711 542.768 38.681 543.314 39.3008C543.861 39.916 544.135 40.7295 544.135 41.7412V42.459H538.974C538.996 43.3385 539.217 44.0062 539.637 44.4619C540.061 44.9176 540.655 45.1455 541.421 45.1455C542.228 45.1455 543.025 44.9769 543.813 44.6396V45.6514C543.412 45.8245 543.032 45.9476 542.672 46.0205C542.316 46.098 541.886 46.1367 541.38 46.1367ZM541.072 39.3213C540.471 39.3213 539.99 39.5173 539.63 39.9092C539.274 40.3011 539.065 40.8434 539.001 41.5361H542.918C542.918 40.8206 542.758 40.2738 542.439 39.8955C542.12 39.5127 541.665 39.3213 541.072 39.3213ZM551.409 43.9561C551.409 44.6533 551.149 45.1911 550.63 45.5693C550.11 45.9476 549.381 46.1367 548.442 46.1367C547.449 46.1367 546.674 45.9795 546.118 45.665V44.6123C546.478 44.7946 546.863 44.9382 547.273 45.043C547.688 45.1478 548.087 45.2002 548.47 45.2002C549.062 45.2002 549.518 45.1068 549.837 44.9199C550.156 44.7285 550.315 44.4391 550.315 44.0518C550.315 43.7601 550.188 43.5117 549.933 43.3066C549.682 43.097 549.19 42.8509 548.456 42.5684C547.759 42.3086 547.262 42.083 546.966 41.8916C546.674 41.6956 546.455 41.4746 546.31 41.2285C546.168 40.9824 546.098 40.6885 546.098 40.3467C546.098 39.736 546.346 39.2552 546.843 38.9043C547.34 38.5488 548.021 38.3711 548.887 38.3711C549.693 38.3711 550.482 38.5352 551.252 38.8633L550.849 39.7861C550.097 39.4762 549.415 39.3213 548.805 39.3213C548.267 39.3213 547.861 39.4056 547.588 39.5742C547.314 39.7428 547.178 39.9753 547.178 40.2715C547.178 40.472 547.228 40.6429 547.328 40.7842C547.433 40.9255 547.599 41.0599 547.827 41.1875C548.055 41.3151 548.493 41.4997 549.14 41.7412C550.028 42.0648 550.628 42.3906 550.938 42.7188C551.252 43.0469 551.409 43.4593 551.409 43.9561Z" fill="#414141"/>
<path fill-rule="evenodd" clip-rule="evenodd" d="M344 40.7185V57.4371H346.312H348.624V56.5369V55.6367L349.329 56.207C349.716 56.5208 350.439 56.9745 350.936 57.2153C351.432 57.4562 352.193 57.736 352.627 57.8372C353.226 57.9766 353.785 58.0091 354.939 57.9715C356.189 57.9309 356.623 57.869 357.364 57.6261C357.86 57.4634 358.596 57.1399 358.999 56.9073C359.422 56.663 360.161 56.0539 360.747 55.4662C361.305 54.9063 361.931 54.1617 362.138 53.8114C362.344 53.461 362.684 52.7783 362.892 52.2942C363.1 51.81 363.362 50.9833 363.474 50.457C363.624 49.753 363.677 49.0239 363.673 47.6987C363.669 46.2255 363.622 45.7127 363.416 44.8841C363.278 44.3268 362.942 43.4121 362.669 42.8514C362.396 42.2908 361.885 41.4638 361.532 41.014C361.179 40.5641 360.554 39.9177 360.142 39.5776C359.731 39.2376 358.988 38.7604 358.492 38.5172C357.995 38.274 357.285 37.9955 356.913 37.8982C356.541 37.801 355.751 37.6923 355.158 37.6567C354.514 37.6181 353.765 37.6467 353.299 37.7277C352.871 37.8022 352.161 38.0024 351.722 38.1726C351.282 38.3428 350.64 38.6694 350.295 38.8984C349.949 39.1274 349.432 39.5209 349.145 39.7728L348.624 40.2311V32.1155V24H346.312H344V40.7185ZM410.058 26.2527C409.903 26.349 409.861 26.5319 409.861 27.1017C409.861 27.8167 409.866 27.8279 410.171 27.8367C410.342 27.8415 410.417 27.8714 410.339 27.9028C410.261 27.9343 410.149 28.0499 410.09 28.1599C410.031 28.2698 409.549 31.6578 409.019 35.6887L408.057 43.0177V49.763C408.057 53.4729 408.089 56.6705 408.129 56.8689C408.169 57.0671 408.365 57.4029 408.565 57.6147L408.929 58H411.466C413.868 58 414.019 57.9875 414.303 57.7649C414.467 57.6356 414.677 57.3847 414.769 57.2075C414.911 56.9331 414.936 55.8337 414.936 49.7852V42.685L414.035 35.9038C413.539 32.1741 413.102 28.9272 413.064 28.6884C413.026 28.4497 412.899 28.1584 412.781 28.041C412.572 27.8318 412.573 27.8278 412.85 27.8278C413.123 27.8278 413.131 27.8053 413.131 27.0397V26.2517H412.528C412.196 26.2517 411.549 26.2243 411.09 26.1907C410.576 26.1533 410.18 26.1771 410.058 26.2527ZM387.757 34.6391V38.1854H386.798H385.84V40.3245V42.4636H386.798H387.757V49.9503V57.4371H390.012H392.268V49.9503V42.4636H394.016H395.764V40.3245V38.1854H394.016H392.268V34.6391V31.0927H390.012H387.757V34.6391ZM398.809 34.6391V38.1854H397.85H396.892V40.3245V42.4636H397.85H398.809V49.9503V57.4371H401.064H403.32V49.9503V42.4636H405.068H406.816V40.3245V38.1854H405.068H403.32V34.6391V31.0927H401.064H398.809V34.6391ZM424.747 37.4686C424.53 37.4964 423.921 37.6222 423.394 37.748C422.867 37.8739 421.903 38.2324 421.251 38.5448C420.202 39.0478 419.95 39.2305 419.041 40.145C418.181 41.0097 417.929 41.3504 417.491 42.2427C417.203 42.8286 416.89 43.6119 416.795 43.9834C416.7 44.355 416.574 45.123 416.514 45.6902C416.444 46.3604 416.445 47.1356 416.518 47.9049C416.58 48.556 416.751 49.5611 416.898 50.1387C417.045 50.7162 417.297 51.5107 417.457 51.9042C417.618 52.2977 417.924 52.931 418.139 53.3115C418.353 53.692 418.805 54.3362 419.143 54.743C419.481 55.1499 420.08 55.7256 420.476 56.0224C420.871 56.319 421.543 56.737 421.969 56.9511C422.395 57.1652 423.131 57.4427 423.604 57.5678C424.246 57.7373 424.825 57.7959 425.875 57.7975C426.885 57.799 427.574 57.7351 428.306 57.5717C428.868 57.4464 429.738 57.1859 430.24 56.9928C430.742 56.7998 431.474 56.4345 431.868 56.1813C432.263 55.928 432.941 55.3552 433.375 54.9084C433.809 54.4616 434.401 53.6952 434.69 53.2053C434.979 52.7154 435.4 51.8672 435.626 51.3205C435.853 50.7737 436.02 50.273 435.998 50.2078C435.976 50.1427 435.073 49.8176 433.99 49.4854C432.907 49.1531 431.958 48.8812 431.88 48.881C431.803 48.8809 431.739 48.9454 431.739 49.0245C431.739 49.1035 431.465 49.7242 431.13 50.4036C430.795 51.0831 430.31 51.8785 430.052 52.1714C429.742 52.5219 429.305 52.8384 428.772 53.0986C428.279 53.339 427.645 53.5413 427.153 53.6151C426.575 53.7017 426.155 53.7018 425.686 53.6156C425.325 53.549 424.75 53.3594 424.409 53.1942C424.068 53.0289 423.502 52.6027 423.152 52.2469C422.783 51.8725 422.371 51.3004 422.173 50.8879C421.985 50.496 421.8 50.0656 421.762 49.9313C421.712 49.7554 421.75 49.6704 421.895 49.628C422.006 49.5956 425.015 48.9526 428.582 48.1992C432.148 47.4458 435.086 46.8114 435.11 46.7893C435.133 46.7673 435.025 46.1776 434.869 45.4789C434.712 44.7803 434.428 43.8033 434.236 43.3079C434.044 42.8126 433.7 42.0922 433.471 41.7071C433.242 41.322 432.813 40.7073 432.516 40.3411C432.219 39.9747 431.633 39.419 431.215 39.1059C430.796 38.7929 430.143 38.3857 429.764 38.2011C429.384 38.0166 428.773 37.7834 428.405 37.6832C428.037 37.5829 427.152 37.4822 426.439 37.4595C425.726 37.4368 424.964 37.4409 424.747 37.4686ZM373.247 37.7811C372.803 37.8659 372.169 38.024 371.838 38.1325C371.506 38.2409 370.848 38.5226 370.375 38.7586C369.902 38.9945 369.136 39.4913 368.674 39.8626C368.212 40.234 367.604 40.8064 367.323 41.1348C367.042 41.4632 366.622 42.0293 366.39 42.393C366.157 42.7566 365.843 43.3344 365.691 43.6768C365.539 44.0192 365.32 44.7096 365.203 45.2109C365.087 45.7123 364.958 46.5025 364.918 46.9669C364.877 47.4313 364.903 48.3417 364.975 48.99C365.047 49.6384 365.253 50.6263 365.433 51.1854C365.613 51.7446 365.995 52.601 366.282 53.0886C366.57 53.5797 367.212 54.4004 367.719 54.9282C368.223 55.4523 369.016 56.1306 369.482 56.4355C369.947 56.7404 370.733 57.1461 371.229 57.3369C371.724 57.5277 372.538 57.7607 373.036 57.8547C373.701 57.9801 374.391 58.0105 375.634 57.969C376.897 57.927 377.534 57.852 378.151 57.6722C378.606 57.5398 379.301 57.285 379.697 57.1059C380.093 56.9267 380.71 56.5861 381.069 56.3487C381.428 56.1114 382.067 55.5922 382.489 55.195C382.911 54.7978 383.551 54.0336 383.91 53.4967C384.278 52.9478 384.715 52.106 384.908 51.5732C385.096 51.0522 385.314 50.2362 385.39 49.76C385.478 49.2152 385.51 48.2966 385.474 47.2831C385.428 45.9311 385.369 45.5184 385.109 44.7152C384.938 44.1889 384.656 43.4796 384.483 43.1391C384.309 42.7985 383.985 42.2666 383.763 41.957C383.54 41.6474 383.041 41.0719 382.654 40.6782C382.266 40.2845 381.636 39.7387 381.254 39.4654C380.872 39.1919 380.172 38.7893 379.698 38.5708C379.224 38.3522 378.445 38.0714 377.968 37.9469C377.381 37.7939 376.606 37.7054 375.577 37.6737C374.57 37.6429 373.782 37.6791 373.247 37.7811ZM427.635 41.9307C427.952 42.0931 428.363 42.3538 428.549 42.51C428.735 42.6662 429.081 43.0743 429.317 43.4169C429.554 43.7595 429.726 44.0595 429.7 44.0836C429.674 44.1078 427.75 44.5326 425.424 45.0278C423.098 45.523 421.187 45.9212 421.177 45.9128C421.167 45.9042 421.209 45.622 421.27 45.2855C421.332 44.949 421.532 44.3776 421.715 44.0156C421.898 43.6538 422.244 43.1617 422.484 42.9221C422.724 42.6825 423.142 42.3566 423.413 42.1978C423.685 42.039 424.185 41.8316 424.525 41.737C424.923 41.6261 425.483 41.5774 426.101 41.6003C426.868 41.6285 427.174 41.6946 427.635 41.9307ZM355.256 41.9609C355.576 42.0559 356.156 42.3501 356.545 42.6147C357.017 42.936 357.444 43.364 357.834 43.9045C358.154 44.3496 358.522 45.0306 358.651 45.4181C358.78 45.8055 358.937 46.5264 358.999 47.0199C359.073 47.6079 359.075 48.2159 359.004 48.7835C358.944 49.2599 358.794 49.9376 358.67 50.2895C358.546 50.6415 358.289 51.1717 358.098 51.4679C357.908 51.7642 357.475 52.2683 357.136 52.5881C356.797 52.9081 356.188 53.3251 355.781 53.5149C355.21 53.782 354.833 53.8731 354.112 53.9179C353.599 53.9498 352.915 53.9186 352.586 53.8483C352.259 53.778 351.703 53.5816 351.352 53.4117C350.998 53.24 350.427 52.8126 350.068 52.45C349.702 52.0803 349.275 51.4946 349.082 51.099C348.895 50.7149 348.664 50.0987 348.57 49.7297C348.471 49.3437 348.398 48.5688 348.398 47.9057C348.398 47.2716 348.455 46.4844 348.525 46.1562C348.594 45.8281 348.789 45.2556 348.958 44.8841C349.127 44.5126 349.471 43.9514 349.721 43.6369C349.972 43.3225 350.452 42.8833 350.788 42.6608C351.123 42.4384 351.7 42.1527 352.069 42.026C352.535 41.8659 353.035 41.7945 353.706 41.7918C354.258 41.7897 354.923 41.8623 355.256 41.9609ZM376.789 41.9479C377.114 42.0344 377.622 42.2207 377.917 42.362C378.212 42.5033 378.764 42.9274 379.143 43.3043C379.523 43.6814 379.97 44.2592 380.137 44.5885C380.305 44.9178 380.539 45.5704 380.659 46.0388C380.793 46.5596 380.878 47.2698 380.878 47.8675C380.878 48.4653 380.793 49.1755 380.659 49.6963C380.539 50.1647 380.314 50.7991 380.158 51.106C380.002 51.4129 379.621 51.9411 379.311 52.28C379.001 52.6189 378.448 53.055 378.083 53.2491C377.718 53.4433 377.121 53.6799 376.757 53.7747C376.392 53.8694 375.709 53.947 375.239 53.947C374.769 53.947 374.096 53.8722 373.744 53.7806C373.392 53.6891 372.861 53.5019 372.564 53.3644C372.268 53.2271 371.694 52.7826 371.29 52.3768C370.86 51.9453 370.427 51.3739 370.247 51.0002C370.078 50.6488 369.864 50.0408 369.772 49.6492C369.679 49.2575 369.603 48.4284 369.602 47.8068C369.601 47.157 369.672 46.3994 369.77 46.0247C369.864 45.6662 370.078 45.0856 370.247 44.7345C370.426 44.3633 370.862 43.7861 371.29 43.3557C371.744 42.8981 372.27 42.5002 372.667 42.3137C373.021 42.1479 373.503 41.9669 373.739 41.9115C373.975 41.856 374.624 41.8062 375.182 41.8007C375.741 41.7953 376.464 41.8615 376.789 41.9479Z" fill="#69A08A"/>
<path d="M1427 15.5H1566C1571.25 15.5 1575.5 19.7533 1575.5 25V57C1575.5 62.2467 1571.25 66.5 1566 66.5H1427C1421.75 66.5 1417.5 62.2467 1417.5 57V25C1417.5 19.7533 1421.75 15.5 1427 15.5Z" fill="#6AA089" stroke="#F7F7F4"/>
<path d="M1450.16 43.2246C1450.16 44.127 1449.83 44.8379 1449.18 45.3574C1448.53 45.877 1447.63 46.1367 1446.47 46.1367C1445.41 46.1367 1444.46 45.9362 1443.64 45.5352V43.5664C1444.32 43.8672 1444.89 44.0791 1445.35 44.2021C1445.82 44.3252 1446.25 44.3867 1446.64 44.3867C1447.1 44.3867 1447.46 44.2979 1447.7 44.1201C1447.95 43.9424 1448.08 43.6781 1448.08 43.3271C1448.08 43.1312 1448.02 42.958 1447.92 42.8076C1447.81 42.6527 1447.64 42.5046 1447.43 42.3633C1447.22 42.222 1446.79 41.9964 1446.14 41.6865C1445.53 41.3994 1445.07 41.1237 1444.76 40.8594C1444.46 40.5951 1444.21 40.2874 1444.03 39.9365C1443.85 39.5856 1443.76 39.1755 1443.76 38.7061C1443.76 37.8219 1444.06 37.127 1444.65 36.6211C1445.26 36.1152 1446.09 35.8623 1447.14 35.8623C1447.66 35.8623 1448.16 35.9238 1448.63 36.0469C1449.1 36.1699 1449.59 36.3431 1450.11 36.5664L1449.43 38.2139C1448.89 37.9951 1448.45 37.8424 1448.1 37.7559C1447.75 37.6693 1447.41 37.626 1447.07 37.626C1446.67 37.626 1446.37 37.7194 1446.15 37.9062C1445.94 38.0931 1445.83 38.3369 1445.83 38.6377C1445.83 38.8245 1445.87 38.9886 1445.96 39.1299C1446.05 39.2666 1446.18 39.401 1446.37 39.5332C1446.56 39.6608 1447.01 39.8932 1447.72 40.2305C1448.65 40.6771 1449.29 41.126 1449.64 41.5771C1449.98 42.0238 1450.16 42.5729 1450.16 43.2246ZM1451.72 36.3818C1451.72 35.7028 1452.09 35.3633 1452.85 35.3633C1453.61 35.3633 1453.99 35.7028 1453.99 36.3818C1453.99 36.7054 1453.89 36.9583 1453.7 37.1406C1453.51 37.3184 1453.23 37.4072 1452.85 37.4072C1452.09 37.4072 1451.72 37.0654 1451.72 36.3818ZM1453.89 46H1451.8V38.3574H1453.89V46ZM1462.74 38.3574V39.417L1461.54 39.7246C1461.76 40.0664 1461.87 40.4492 1461.87 40.873C1461.87 41.6934 1461.58 42.3337 1461.01 42.7939C1460.44 43.2497 1459.64 43.4775 1458.63 43.4775L1458.25 43.457L1457.94 43.4229C1457.73 43.5869 1457.62 43.7692 1457.62 43.9697C1457.62 44.2705 1458 44.4209 1458.77 44.4209H1460.07C1460.91 44.4209 1461.55 44.6009 1461.98 44.9609C1462.43 45.321 1462.65 45.8496 1462.65 46.5469C1462.65 47.4401 1462.27 48.1328 1461.53 48.625C1460.78 49.1172 1459.71 49.3633 1458.32 49.3633C1457.25 49.3633 1456.44 49.1764 1455.87 48.8027C1455.31 48.4336 1455.03 47.9141 1455.03 47.2441C1455.03 46.7839 1455.17 46.3988 1455.46 46.0889C1455.75 45.779 1456.17 45.5579 1456.73 45.4258C1456.51 45.3346 1456.33 45.1865 1456.17 44.9814C1456.01 44.7718 1455.93 44.5508 1455.93 44.3184C1455.93 44.0267 1456.01 43.7852 1456.18 43.5938C1456.35 43.3978 1456.59 43.2064 1456.91 43.0195C1456.51 42.8464 1456.19 42.5684 1455.95 42.1855C1455.72 41.8027 1455.61 41.3516 1455.61 40.832C1455.61 39.998 1455.88 39.3532 1456.42 38.8975C1456.96 38.4417 1457.74 38.2139 1458.74 38.2139C1458.96 38.2139 1459.21 38.2344 1459.5 38.2754C1459.8 38.3118 1459.99 38.3392 1460.07 38.3574H1462.74ZM1456.84 47.0801C1456.84 47.3672 1456.97 47.5928 1457.25 47.7568C1457.52 47.9209 1457.91 48.0029 1458.41 48.0029C1459.16 48.0029 1459.74 47.9004 1460.17 47.6953C1460.59 47.4902 1460.8 47.21 1460.8 46.8545C1460.8 46.5674 1460.68 46.3691 1460.42 46.2598C1460.17 46.1504 1459.79 46.0957 1459.26 46.0957H1458.18C1457.8 46.0957 1457.48 46.1846 1457.22 46.3623C1456.96 46.5446 1456.84 46.7839 1456.84 47.0801ZM1457.59 40.8594C1457.59 41.2741 1457.69 41.6022 1457.88 41.8438C1458.07 42.0853 1458.36 42.2061 1458.74 42.2061C1459.14 42.2061 1459.42 42.0853 1459.6 41.8438C1459.79 41.6022 1459.88 41.2741 1459.88 40.8594C1459.88 39.9388 1459.5 39.4785 1458.74 39.4785C1457.98 39.4785 1457.59 39.9388 1457.59 40.8594ZM1471.05 46H1468.97V41.5361C1468.97 40.9847 1468.87 40.5723 1468.68 40.2988C1468.48 40.0208 1468.17 39.8818 1467.74 39.8818C1467.16 39.8818 1466.73 40.0778 1466.47 40.4697C1466.21 40.8571 1466.08 41.502 1466.08 42.4043V46H1464V38.3574H1465.59L1465.87 39.335H1465.99C1466.22 38.9658 1466.54 38.6878 1466.95 38.501C1467.36 38.3096 1467.82 38.2139 1468.34 38.2139C1469.23 38.2139 1469.9 38.4554 1470.36 38.9385C1470.82 39.417 1471.05 40.1097 1471.05 41.0166V46ZM1482.25 46L1481.97 45.0225H1481.86C1481.64 45.3779 1481.32 45.6536 1480.91 45.8496C1480.5 46.041 1480.03 46.1367 1479.51 46.1367C1478.61 46.1367 1477.94 45.8975 1477.48 45.4189C1477.02 44.9359 1476.8 44.2432 1476.8 43.3408V38.3574H1478.88V42.8213C1478.88 43.3727 1478.98 43.7874 1479.18 44.0654C1479.37 44.3389 1479.68 44.4756 1480.11 44.4756C1480.7 44.4756 1481.12 44.2819 1481.38 43.8945C1481.64 43.5026 1481.77 42.8555 1481.77 41.9531V38.3574H1483.85V46H1482.25ZM1490.24 46.1367C1489.34 46.1367 1488.63 45.8109 1488.12 45.1592H1488.01C1488.09 45.7972 1488.12 46.1663 1488.12 46.2666V49.3633H1486.04V38.3574H1487.73L1488.03 39.3486H1488.12C1488.61 38.5921 1489.33 38.2139 1490.29 38.2139C1491.19 38.2139 1491.9 38.5625 1492.41 39.2598C1492.92 39.957 1493.18 40.9255 1493.18 42.165C1493.18 42.9808 1493.06 43.6895 1492.81 44.291C1492.58 44.8926 1492.24 45.3506 1491.79 45.665C1491.35 45.9795 1490.83 46.1367 1490.24 46.1367ZM1489.62 39.8818C1489.11 39.8818 1488.73 40.0413 1488.49 40.3604C1488.26 40.6748 1488.13 41.1966 1488.12 41.9258V42.1514C1488.12 42.9717 1488.24 43.5596 1488.49 43.915C1488.73 44.2705 1489.12 44.4482 1489.65 44.4482C1490.58 44.4482 1491.05 43.6781 1491.05 42.1377C1491.05 41.3857 1490.93 40.8229 1490.7 40.4492C1490.47 40.071 1490.11 39.8818 1489.62 39.8818ZM1502.76 39.9229H1500.96V46H1498.87V39.9229H1497.72V38.918L1498.87 38.3574V37.7969C1498.87 36.9264 1499.08 36.2907 1499.51 35.8896C1499.94 35.4886 1500.63 35.2881 1501.57 35.2881C1502.29 35.2881 1502.93 35.3952 1503.49 35.6094L1502.96 37.1406C1502.54 37.0085 1502.15 36.9424 1501.8 36.9424C1501.5 36.9424 1501.29 37.0312 1501.15 37.209C1501.02 37.3822 1500.96 37.6055 1500.96 37.8789V38.3574H1502.76V39.9229ZM1505.62 42.165C1505.62 42.9215 1505.75 43.4935 1505.99 43.8809C1506.24 44.2682 1506.65 44.4619 1507.21 44.4619C1507.77 44.4619 1508.16 44.2705 1508.41 43.8877C1508.65 43.5003 1508.78 42.9261 1508.78 42.165C1508.78 41.4085 1508.65 40.8411 1508.41 40.4629C1508.16 40.0846 1507.76 39.8955 1507.2 39.8955C1506.64 39.8955 1506.24 40.0846 1505.99 40.4629C1505.75 40.8366 1505.62 41.404 1505.62 42.165ZM1510.91 42.165C1510.91 43.4092 1510.58 44.3822 1509.92 45.084C1509.27 45.7858 1508.35 46.1367 1507.18 46.1367C1506.45 46.1367 1505.8 45.9772 1505.24 45.6582C1504.68 45.3346 1504.25 44.8721 1503.95 44.2705C1503.65 43.6689 1503.5 42.9671 1503.5 42.165C1503.5 40.9163 1503.82 39.9456 1504.48 39.2529C1505.13 38.5602 1506.04 38.2139 1507.22 38.2139C1507.96 38.2139 1508.6 38.3734 1509.17 38.6924C1509.73 39.0114 1510.16 39.4694 1510.46 40.0664C1510.76 40.6634 1510.91 41.363 1510.91 42.165ZM1516.9 38.2139C1517.18 38.2139 1517.41 38.2344 1517.6 38.2754L1517.44 40.2305C1517.27 40.1849 1517.07 40.1621 1516.83 40.1621C1516.16 40.1621 1515.64 40.333 1515.27 40.6748C1514.9 41.0166 1514.72 41.4951 1514.72 42.1104V46H1512.63V38.3574H1514.21L1514.52 39.6426H1514.62C1514.86 39.2142 1515.18 38.8701 1515.58 38.6104C1515.98 38.346 1516.42 38.2139 1516.9 38.2139ZM1525.84 44.4756C1526.21 44.4756 1526.65 44.3958 1527.16 44.2363V45.7881C1526.64 46.0205 1526 46.1367 1525.24 46.1367C1524.41 46.1367 1523.8 45.9271 1523.42 45.5078C1523.04 45.084 1522.85 44.4505 1522.85 43.6074V39.9229H1521.85V39.041L1523 38.3438L1523.6 36.7305H1524.94V38.3574H1527.08V39.9229H1524.94V43.6074C1524.94 43.9036 1525.02 44.1224 1525.18 44.2637C1525.35 44.4049 1525.57 44.4756 1525.84 44.4756ZM1532.97 38.2139C1533.26 38.2139 1533.49 38.2344 1533.68 38.2754L1533.52 40.2305C1533.35 40.1849 1533.15 40.1621 1532.91 40.1621C1532.24 40.1621 1531.72 40.333 1531.35 40.6748C1530.98 41.0166 1530.79 41.4951 1530.79 42.1104V46H1528.71V38.3574H1530.29L1530.6 39.6426H1530.7C1530.94 39.2142 1531.25 38.8701 1531.66 38.6104C1532.06 38.346 1532.5 38.2139 1532.97 38.2139ZM1534.98 36.3818C1534.98 35.7028 1535.36 35.3633 1536.11 35.3633C1536.87 35.3633 1537.25 35.7028 1537.25 36.3818C1537.25 36.7054 1537.15 36.9583 1536.96 37.1406C1536.77 37.3184 1536.49 37.4072 1536.11 37.4072C1535.36 37.4072 1534.98 37.0654 1534.98 36.3818ZM1537.15 46H1535.07V38.3574H1537.15V46ZM1544.2 46L1543.8 44.9609H1543.74C1543.39 45.403 1543.03 45.7106 1542.65 45.8838C1542.29 46.0524 1541.8 46.1367 1541.21 46.1367C1540.47 46.1367 1539.89 45.9271 1539.47 45.5078C1539.05 45.0885 1538.84 44.4915 1538.84 43.7168C1538.84 42.9056 1539.12 42.3086 1539.69 41.9258C1540.26 41.5384 1541.11 41.3242 1542.26 41.2832L1543.58 41.2422V40.9072C1543.58 40.1325 1543.19 39.7451 1542.39 39.7451C1541.78 39.7451 1541.07 39.9297 1540.24 40.2988L1539.55 38.8906C1540.43 38.4303 1541.41 38.2002 1542.48 38.2002C1543.5 38.2002 1544.29 38.4235 1544.83 38.8701C1545.38 39.3167 1545.66 39.9958 1545.66 40.9072V46H1544.2ZM1543.58 42.459L1542.78 42.4863C1542.17 42.5046 1541.72 42.6139 1541.42 42.8145C1541.13 43.015 1540.98 43.3203 1540.98 43.7305C1540.98 44.3184 1541.32 44.6123 1541.99 44.6123C1542.47 44.6123 1542.86 44.4733 1543.15 44.1953C1543.44 43.9173 1543.58 43.5482 1543.58 43.0879V42.459ZM1549.89 46H1547.81V35.3633H1549.89V46Z" fill="white"/>
<path d="M1219 15.5H1379C1384.25 15.5 1388.5 19.7533 1388.5 25V57C1388.5 62.2467 1384.25 66.5 1379 66.5H1219C1213.75 66.5 1209.5 62.2467 1209.5 57V25C1209.5 19.7533 1213.75 15.5 1219 15.5Z" fill="#F7F7F4" stroke="#6AA089"/>
<path d="M1245.99 46H1243.58L1242.23 40.75C1242.18 40.5632 1242.09 40.1781 1241.97 39.5947C1241.85 39.0068 1241.78 38.6126 1241.76 38.4121C1241.73 38.6582 1241.67 39.0547 1241.56 39.6016C1241.45 40.1439 1241.36 40.5312 1241.3 40.7637L1239.96 46H1237.55L1235 36.0059H1237.08L1238.36 41.4609C1238.59 42.4681 1238.75 43.3408 1238.85 44.0791C1238.88 43.8193 1238.94 43.4183 1239.03 42.876C1239.13 42.3291 1239.23 41.9053 1239.31 41.6045L1240.77 36.0059H1242.77L1244.23 41.6045C1244.29 41.8551 1244.37 42.238 1244.47 42.7529C1244.56 43.2679 1244.64 43.71 1244.69 44.0791C1244.73 43.7236 1244.81 43.2816 1244.91 42.7529C1245.01 42.2197 1245.1 41.7891 1245.18 41.4609L1246.45 36.0059H1248.54L1245.99 46ZM1254.48 46L1254.08 44.9609H1254.02C1253.67 45.403 1253.31 45.7106 1252.94 45.8838C1252.57 46.0524 1252.09 46.1367 1251.49 46.1367C1250.75 46.1367 1250.18 45.9271 1249.75 45.5078C1249.33 45.0885 1249.12 44.4915 1249.12 43.7168C1249.12 42.9056 1249.41 42.3086 1249.97 41.9258C1250.54 41.5384 1251.4 41.3242 1252.54 41.2832L1253.87 41.2422V40.9072C1253.87 40.1325 1253.47 39.7451 1252.68 39.7451C1252.07 39.7451 1251.35 39.9297 1250.52 40.2988L1249.83 38.8906C1250.71 38.4303 1251.69 38.2002 1252.76 38.2002C1253.79 38.2002 1254.57 38.4235 1255.12 38.8701C1255.67 39.3167 1255.94 39.9958 1255.94 40.9072V46H1254.48ZM1253.87 42.459L1253.06 42.4863C1252.45 42.5046 1252 42.6139 1251.71 42.8145C1251.41 43.015 1251.26 43.3203 1251.26 43.7305C1251.26 44.3184 1251.6 44.6123 1252.27 44.6123C1252.76 44.6123 1253.14 44.4733 1253.43 44.1953C1253.72 43.9173 1253.87 43.5482 1253.87 43.0879V42.459ZM1261.31 44.4756C1261.68 44.4756 1262.11 44.3958 1262.62 44.2363V45.7881C1262.1 46.0205 1261.47 46.1367 1260.71 46.1367C1259.88 46.1367 1259.27 45.9271 1258.88 45.5078C1258.51 45.084 1258.32 44.4505 1258.32 43.6074V39.9229H1257.32V39.041L1258.47 38.3438L1259.07 36.7305H1260.4V38.3574H1262.54V39.9229H1260.4V43.6074C1260.4 43.9036 1260.48 44.1224 1260.65 44.2637C1260.82 44.4049 1261.04 44.4756 1261.31 44.4756ZM1267.28 46.1367C1264.9 46.1367 1263.71 44.8311 1263.71 42.2197C1263.71 40.9209 1264.03 39.9297 1264.68 39.2461C1265.33 38.5579 1266.26 38.2139 1267.46 38.2139C1268.35 38.2139 1269.14 38.387 1269.84 38.7334L1269.23 40.3467C1268.9 40.2145 1268.59 40.1074 1268.31 40.0254C1268.03 39.9388 1267.75 39.8955 1267.46 39.8955C1266.38 39.8955 1265.84 40.6657 1265.84 42.2061C1265.84 43.7008 1266.38 44.4482 1267.46 44.4482C1267.86 44.4482 1268.24 44.3958 1268.58 44.291C1268.92 44.1816 1269.26 44.013 1269.6 43.7852V45.5693C1269.27 45.7835 1268.92 45.9316 1268.58 46.0137C1268.24 46.0957 1267.8 46.1367 1267.28 46.1367ZM1278.44 46H1276.35V41.5361C1276.35 40.4333 1275.94 39.8818 1275.12 39.8818C1274.54 39.8818 1274.12 40.0801 1273.86 40.4766C1273.6 40.873 1273.47 41.5156 1273.47 42.4043V46H1271.38V35.3633H1273.47V37.5303C1273.47 37.6989 1273.45 38.0954 1273.42 38.7197L1273.37 39.335H1273.48C1273.94 38.5876 1274.68 38.2139 1275.69 38.2139C1276.59 38.2139 1277.27 38.4554 1277.74 38.9385C1278.2 39.4215 1278.44 40.1143 1278.44 41.0166V46ZM1286.64 46.1367C1285.74 46.1367 1285.03 45.7881 1284.52 45.0908C1284.01 44.3936 1283.75 43.4274 1283.75 42.1924C1283.75 40.9391 1284.01 39.9639 1284.53 39.2666C1285.06 38.5648 1285.78 38.2139 1286.69 38.2139C1287.65 38.2139 1288.39 38.5876 1288.89 39.335H1288.96C1288.86 38.7653 1288.81 38.2572 1288.81 37.8105V35.3633H1290.9V46H1289.3L1288.89 45.0088H1288.81C1288.33 45.7607 1287.61 46.1367 1286.64 46.1367ZM1287.37 44.4756C1287.9 44.4756 1288.29 44.3206 1288.54 44.0107C1288.79 43.7008 1288.93 43.1745 1288.95 42.4316V42.2061C1288.95 41.3857 1288.82 40.7979 1288.57 40.4424C1288.32 40.0869 1287.91 39.9092 1287.34 39.9092C1286.87 39.9092 1286.51 40.1074 1286.25 40.5039C1285.99 40.8958 1285.87 41.4678 1285.87 42.2197C1285.87 42.9717 1286 43.5368 1286.26 43.915C1286.52 44.2887 1286.89 44.4756 1287.37 44.4756ZM1296.24 39.6973C1295.8 39.6973 1295.45 39.8385 1295.2 40.1211C1294.95 40.3991 1294.81 40.7956 1294.77 41.3105H1297.7C1297.69 40.7956 1297.56 40.3991 1297.3 40.1211C1297.04 39.8385 1296.69 39.6973 1296.24 39.6973ZM1296.54 46.1367C1295.31 46.1367 1294.35 45.7972 1293.65 45.1182C1292.96 44.4391 1292.61 43.4775 1292.61 42.2334C1292.61 40.9528 1292.93 39.9639 1293.57 39.2666C1294.21 38.5648 1295.1 38.2139 1296.23 38.2139C1297.31 38.2139 1298.15 38.5215 1298.75 39.1367C1299.35 39.752 1299.65 40.6019 1299.65 41.6865V42.6982H1294.73C1294.75 43.2907 1294.92 43.7533 1295.25 44.0859C1295.58 44.4186 1296.04 44.585 1296.63 44.585C1297.09 44.585 1297.53 44.5371 1297.94 44.4414C1298.35 44.3457 1298.78 44.193 1299.22 43.9834V45.5967C1298.86 45.779 1298.47 45.9134 1298.05 46C1297.64 46.0911 1297.13 46.1367 1296.54 46.1367ZM1308.19 46H1306.11V41.5361C1306.11 40.9847 1306.01 40.5723 1305.83 40.2988C1305.64 40.0208 1305.36 39.8818 1304.96 39.8818C1304.43 39.8818 1304.04 40.0778 1303.8 40.4697C1303.56 40.8617 1303.43 41.5065 1303.43 42.4043V46H1301.35V38.3574H1302.94L1303.22 39.335H1303.34C1303.54 38.984 1303.84 38.7106 1304.23 38.5146C1304.61 38.3141 1305.06 38.2139 1305.56 38.2139C1306.7 38.2139 1307.48 38.5876 1307.88 39.335H1308.07C1308.27 38.9795 1308.58 38.7038 1308.97 38.5078C1309.37 38.3118 1309.82 38.2139 1310.33 38.2139C1311.19 38.2139 1311.85 38.4372 1312.29 38.8838C1312.73 39.3258 1312.96 40.0368 1312.96 41.0166V46H1310.87V41.5361C1310.87 40.9847 1310.77 40.5723 1310.58 40.2988C1310.4 40.0208 1310.11 39.8818 1309.72 39.8818C1309.21 39.8818 1308.82 40.0641 1308.57 40.4287C1308.32 40.7933 1308.19 41.3721 1308.19 42.165V46ZM1316.76 42.165C1316.76 42.9215 1316.89 43.4935 1317.13 43.8809C1317.38 44.2682 1317.79 44.4619 1318.35 44.4619C1318.91 44.4619 1319.31 44.2705 1319.55 43.8877C1319.79 43.5003 1319.92 42.9261 1319.92 42.165C1319.92 41.4085 1319.79 40.8411 1319.55 40.4629C1319.3 40.0846 1318.9 39.8955 1318.34 39.8955C1317.78 39.8955 1317.38 40.0846 1317.13 40.4629C1316.89 40.8366 1316.76 41.404 1316.76 42.165ZM1322.05 42.165C1322.05 43.4092 1321.72 44.3822 1321.06 45.084C1320.41 45.7858 1319.49 46.1367 1318.32 46.1367C1317.59 46.1367 1316.94 45.9772 1316.38 45.6582C1315.82 45.3346 1315.39 44.8721 1315.09 44.2705C1314.79 43.6689 1314.64 42.9671 1314.64 42.165C1314.64 40.9163 1314.96 39.9456 1315.62 39.2529C1316.27 38.5602 1317.18 38.2139 1318.36 38.2139C1319.1 38.2139 1319.75 38.3734 1320.31 38.6924C1320.87 39.0114 1321.3 39.4694 1321.6 40.0664C1321.9 40.6634 1322.05 41.363 1322.05 42.165ZM1329.23 46L1326.31 38.3574H1328.5L1329.97 42.7119C1330.14 43.2633 1330.24 43.7852 1330.28 44.2773H1330.32C1330.34 43.8398 1330.45 43.318 1330.63 42.7119L1332.1 38.3574H1334.28L1331.37 46H1329.23ZM1335.29 36.3818C1335.29 35.7028 1335.67 35.3633 1336.42 35.3633C1337.18 35.3633 1337.56 35.7028 1337.56 36.3818C1337.56 36.7054 1337.46 36.9583 1337.27 37.1406C1337.09 37.3184 1336.8 37.4072 1336.42 37.4072C1335.67 37.4072 1335.29 37.0654 1335.29 36.3818ZM1337.46 46H1335.38V38.3574H1337.46V46ZM1342.08 46.1367C1341.18 46.1367 1340.47 45.7881 1339.96 45.0908C1339.45 44.3936 1339.19 43.4274 1339.19 42.1924C1339.19 40.9391 1339.45 39.9639 1339.97 39.2666C1340.5 38.5648 1341.22 38.2139 1342.13 38.2139C1343.09 38.2139 1343.83 38.5876 1344.33 39.335H1344.4C1344.3 38.7653 1344.25 38.2572 1344.25 37.8105V35.3633H1346.34V46H1344.74L1344.33 45.0088H1344.25C1343.77 45.7607 1343.05 46.1367 1342.08 46.1367ZM1342.81 44.4756C1343.34 44.4756 1343.73 44.3206 1343.98 44.0107C1344.23 43.7008 1344.37 43.1745 1344.39 42.4316V42.2061C1344.39 41.3857 1344.26 40.7979 1344.01 40.4424C1343.76 40.0869 1343.35 39.9092 1342.78 39.9092C1342.31 39.9092 1341.95 40.1074 1341.69 40.5039C1341.43 40.8958 1341.31 41.4678 1341.31 42.2197C1341.31 42.9717 1341.44 43.5368 1341.7 43.915C1341.96 44.2887 1342.33 44.4756 1342.81 44.4756ZM1351.68 39.6973C1351.24 39.6973 1350.89 39.8385 1350.64 40.1211C1350.39 40.3991 1350.25 40.7956 1350.21 41.3105H1353.14C1353.13 40.7956 1353 40.3991 1352.74 40.1211C1352.48 39.8385 1352.12 39.6973 1351.68 39.6973ZM1351.98 46.1367C1350.75 46.1367 1349.78 45.7972 1349.09 45.1182C1348.4 44.4391 1348.05 43.4775 1348.05 42.2334C1348.05 40.9528 1348.37 39.9639 1349.01 39.2666C1349.65 38.5648 1350.54 38.2139 1351.67 38.2139C1352.75 38.2139 1353.59 38.5215 1354.19 39.1367C1354.79 39.752 1355.09 40.6019 1355.09 41.6865V42.6982H1350.17C1350.19 43.2907 1350.36 43.7533 1350.69 44.0859C1351.02 44.4186 1351.48 44.585 1352.07 44.585C1352.53 44.585 1352.97 44.5371 1353.38 44.4414C1353.79 44.3457 1354.22 44.193 1354.66 43.9834V45.5967C1354.3 45.779 1353.91 45.9134 1353.49 46C1353.08 46.0911 1352.57 46.1367 1351.98 46.1367ZM1358.45 42.165C1358.45 42.9215 1358.57 43.4935 1358.82 43.8809C1359.07 44.2682 1359.48 44.4619 1360.04 44.4619C1360.59 44.4619 1360.99 44.2705 1361.23 43.8877C1361.48 43.5003 1361.6 42.9261 1361.6 42.165C1361.6 41.4085 1361.48 40.8411 1361.23 40.4629C1360.99 40.0846 1360.58 39.8955 1360.02 39.8955C1359.47 39.8955 1359.07 40.0846 1358.82 40.4629C1358.57 40.8366 1358.45 41.404 1358.45 42.165ZM1363.73 42.165C1363.73 43.4092 1363.41 44.3822 1362.75 45.084C1362.09 45.7858 1361.18 46.1367 1360.01 46.1367C1359.28 46.1367 1358.63 45.9772 1358.07 45.6582C1357.51 45.3346 1357.08 44.8721 1356.78 44.2705C1356.47 43.6689 1356.32 42.9671 1356.32 42.165C1356.32 40.9163 1356.65 39.9456 1357.3 39.2529C1357.95 38.5602 1358.87 38.2139 1360.05 38.2139C1360.78 38.2139 1361.43 38.3734 1361.99 38.6924C1362.55 39.0114 1362.98 39.4694 1363.28 40.0664C1363.58 40.6634 1363.73 41.363 1363.73 42.165Z" fill="#414141"/>
</svg>
