<svg width="1068" height="412" viewBox="0 0 1068 412" fill="none" xmlns="http://www.w3.org/2000/svg">
<path d="M531.371 232H529.794V219.837H525.499V218.437H535.667V219.837H531.371V232ZM544.443 232V225.422C544.443 224.594 544.254 223.975 543.877 223.567C543.5 223.159 542.909 222.955 542.105 222.955C541.035 222.955 540.253 223.245 539.758 223.827C539.269 224.408 539.025 225.361 539.025 226.684V232H537.485V217.564H539.025V221.934C539.025 222.46 539 222.896 538.951 223.242H539.043C539.347 222.754 539.776 222.37 540.333 222.092C540.896 221.807 541.536 221.665 542.253 221.665C543.497 221.665 544.427 221.962 545.046 222.556C545.671 223.143 545.983 224.08 545.983 225.367V232H544.443ZM550.696 232H549.156V221.832H550.696V232ZM549.026 219.077C549.026 218.724 549.112 218.467 549.286 218.307C549.459 218.14 549.675 218.056 549.935 218.056C550.182 218.056 550.396 218.14 550.575 218.307C550.755 218.474 550.844 218.73 550.844 219.077C550.844 219.423 550.755 219.683 550.575 219.856C550.396 220.023 550.182 220.106 549.935 220.106C549.675 220.106 549.459 220.023 549.286 219.856C549.112 219.683 549.026 219.423 549.026 219.077ZM560.521 229.226C560.521 230.172 560.168 230.902 559.463 231.416C558.758 231.929 557.768 232.186 556.494 232.186C555.146 232.186 554.094 231.972 553.34 231.545V230.117C553.828 230.364 554.351 230.559 554.908 230.701C555.471 230.843 556.012 230.915 556.531 230.915C557.335 230.915 557.954 230.788 558.387 230.534C558.82 230.274 559.036 229.882 559.036 229.356C559.036 228.96 558.863 228.623 558.517 228.345C558.176 228.06 557.508 227.726 556.513 227.343C555.566 226.99 554.892 226.684 554.49 226.424C554.094 226.158 553.798 225.858 553.6 225.524C553.408 225.19 553.312 224.792 553.312 224.328C553.312 223.499 553.649 222.846 554.323 222.37C554.997 221.888 555.922 221.646 557.097 221.646C558.192 221.646 559.262 221.869 560.307 222.314L559.76 223.567C558.739 223.146 557.815 222.936 556.986 222.936C556.256 222.936 555.706 223.05 555.334 223.279C554.963 223.508 554.778 223.824 554.778 224.226C554.778 224.498 554.846 224.73 554.982 224.921C555.124 225.113 555.35 225.296 555.659 225.469C555.968 225.642 556.562 225.892 557.44 226.22C558.646 226.659 559.46 227.102 559.88 227.547C560.307 227.992 560.521 228.552 560.521 229.226ZM569.51 232H567.97V221.832H569.51V232ZM567.84 219.077C567.84 218.724 567.927 218.467 568.1 218.307C568.273 218.14 568.49 218.056 568.75 218.056C568.997 218.056 569.21 218.14 569.39 218.307C569.569 218.474 569.659 218.73 569.659 219.077C569.659 219.423 569.569 219.683 569.39 219.856C569.21 220.023 568.997 220.106 568.75 220.106C568.49 220.106 568.273 220.023 568.1 219.856C567.927 219.683 567.84 219.423 567.84 219.077ZM579.335 229.226C579.335 230.172 578.982 230.902 578.277 231.416C577.572 231.929 576.583 232.186 575.309 232.186C573.96 232.186 572.909 231.972 572.154 231.545V230.117C572.643 230.364 573.166 230.559 573.722 230.701C574.285 230.843 574.826 230.915 575.346 230.915C576.15 230.915 576.768 230.788 577.201 230.534C577.634 230.274 577.851 229.882 577.851 229.356C577.851 228.96 577.677 228.623 577.331 228.345C576.991 228.06 576.323 227.726 575.327 227.343C574.381 226.99 573.707 226.684 573.305 226.424C572.909 226.158 572.612 225.858 572.414 225.524C572.222 225.19 572.126 224.792 572.126 224.328C572.126 223.499 572.464 222.846 573.138 222.37C573.812 221.888 574.736 221.646 575.912 221.646C577.006 221.646 578.076 221.869 579.122 222.314L578.574 223.567C577.554 223.146 576.629 222.936 575.8 222.936C575.07 222.936 574.52 223.05 574.149 223.279C573.778 223.508 573.592 223.824 573.592 224.226C573.592 224.498 573.66 224.73 573.796 224.921C573.939 225.113 574.164 225.296 574.474 225.469C574.783 225.642 575.377 225.892 576.255 226.22C577.461 226.659 578.274 227.102 578.695 227.547C579.122 227.992 579.335 228.552 579.335 229.226ZM593.344 229.226C593.344 230.172 592.991 230.902 592.286 231.416C591.581 231.929 590.591 232.186 589.317 232.186C587.969 232.186 586.918 231.972 586.163 231.545V230.117C586.652 230.364 587.174 230.559 587.731 230.701C588.294 230.843 588.835 230.915 589.354 230.915C590.159 230.915 590.777 230.788 591.21 230.534C591.643 230.274 591.859 229.882 591.859 229.356C591.859 228.96 591.686 228.623 591.34 228.345C591 228.06 590.332 227.726 589.336 227.343C588.39 226.99 587.715 226.684 587.313 226.424C586.918 226.158 586.621 225.858 586.423 225.524C586.231 225.19 586.135 224.792 586.135 224.328C586.135 223.499 586.472 222.846 587.146 222.37C587.821 221.888 588.745 221.646 589.92 221.646C591.015 221.646 592.085 221.869 593.13 222.314L592.583 223.567C591.562 223.146 590.638 222.936 589.809 222.936C589.079 222.936 588.529 223.05 588.158 223.279C587.787 223.508 587.601 223.824 587.601 224.226C587.601 224.498 587.669 224.73 587.805 224.921C587.947 225.113 588.173 225.296 588.482 225.469C588.792 225.642 589.385 225.892 590.264 226.22C591.47 226.659 592.283 227.102 592.704 227.547C593.13 227.992 593.344 228.552 593.344 229.226ZM597.398 232H595.858V221.832H597.398V232ZM595.728 219.077C595.728 218.724 595.815 218.467 595.988 218.307C596.161 218.14 596.377 218.056 596.637 218.056C596.885 218.056 597.098 218.14 597.277 218.307C597.457 218.474 597.546 218.73 597.546 219.077C597.546 219.423 597.457 219.683 597.277 219.856C597.098 220.023 596.885 220.106 596.637 220.106C596.377 220.106 596.161 220.023 595.988 219.856C595.815 219.683 595.728 219.423 595.728 219.077ZM613.624 232V225.385C613.624 224.575 613.451 223.969 613.104 223.567C612.758 223.159 612.22 222.955 611.49 222.955C610.532 222.955 609.823 223.23 609.366 223.78C608.908 224.331 608.679 225.178 608.679 226.322V232H607.139V225.385C607.139 224.575 606.966 223.969 606.62 223.567C606.273 223.159 605.732 222.955 604.996 222.955C604.031 222.955 603.323 223.245 602.872 223.827C602.426 224.402 602.204 225.348 602.204 226.666V232H600.664V221.832H601.916L602.167 223.224H602.241C602.531 222.729 602.94 222.342 603.465 222.064C603.997 221.786 604.591 221.646 605.247 221.646C606.836 221.646 607.875 222.222 608.364 223.372H608.438C608.741 222.84 609.18 222.42 609.755 222.11C610.331 221.801 610.986 221.646 611.722 221.646C612.873 221.646 613.732 221.943 614.301 222.537C614.876 223.125 615.164 224.068 615.164 225.367V232H613.624ZM623.078 232.186C622.416 232.186 621.81 232.065 621.259 231.824C620.715 231.576 620.257 231.199 619.886 230.692H619.775C619.849 231.286 619.886 231.848 619.886 232.38V236.564H618.346V221.832H619.599L619.812 223.224H619.886C620.282 222.667 620.743 222.265 621.269 222.018C621.794 221.77 622.397 221.646 623.078 221.646C624.426 221.646 625.465 222.107 626.195 223.029C626.931 223.95 627.299 225.243 627.299 226.907C627.299 228.577 626.925 229.875 626.176 230.803C625.434 231.725 624.401 232.186 623.078 232.186ZM622.855 222.955C621.816 222.955 621.064 223.242 620.601 223.817C620.137 224.393 619.899 225.308 619.886 226.563V226.907C619.886 228.335 620.124 229.359 620.601 229.978C621.077 230.59 621.841 230.896 622.892 230.896C623.77 230.896 624.457 230.54 624.952 229.829C625.453 229.118 625.703 228.138 625.703 226.888C625.703 225.62 625.453 224.649 624.952 223.975C624.457 223.295 623.758 222.955 622.855 222.955ZM631.539 232H629.999V217.564H631.539V232ZM633.19 221.832H634.841L637.068 227.63C637.556 228.954 637.86 229.91 637.977 230.497H638.051C638.132 230.182 638.299 229.644 638.552 228.883C638.812 228.116 639.653 225.766 641.076 221.832H642.727L638.357 233.41C637.924 234.554 637.417 235.365 636.836 235.841C636.261 236.323 635.553 236.564 634.711 236.564C634.241 236.564 633.778 236.512 633.32 236.407V235.173C633.66 235.247 634.04 235.284 634.461 235.284C635.519 235.284 636.273 234.69 636.725 233.503L637.291 232.056L633.19 221.832ZM657.617 232L655.752 226.035C655.635 225.67 655.415 224.841 655.094 223.548H655.02C654.772 224.631 654.556 225.466 654.37 226.053L652.45 232H650.668L647.895 221.832H649.509C650.164 224.386 650.662 226.332 651.002 227.667C651.349 229.003 651.547 229.903 651.596 230.367H651.67C651.738 230.015 651.847 229.56 651.995 229.003C652.15 228.441 652.283 227.995 652.394 227.667L654.259 221.832H655.929L657.747 227.667C658.093 228.731 658.328 229.625 658.452 230.349H658.526C658.551 230.126 658.616 229.783 658.721 229.319C658.833 228.855 659.479 226.359 660.66 221.832H662.256L659.445 232H657.617ZM671.06 232V225.422C671.06 224.594 670.871 223.975 670.494 223.567C670.117 223.159 669.526 222.955 668.722 222.955C667.652 222.955 666.87 223.245 666.375 223.827C665.886 224.408 665.642 225.361 665.642 226.684V232H664.102V217.564H665.642V221.934C665.642 222.46 665.617 222.896 665.568 223.242H665.661C665.964 222.754 666.394 222.37 666.95 222.092C667.513 221.807 668.153 221.665 668.871 221.665C670.114 221.665 671.045 221.962 671.663 222.556C672.288 223.143 672.6 224.08 672.6 225.367V232H671.06ZM682.026 232L681.72 230.553H681.646C681.138 231.19 680.631 231.623 680.124 231.852C679.623 232.074 678.995 232.186 678.241 232.186C677.233 232.186 676.441 231.926 675.866 231.406C675.297 230.887 675.012 230.148 675.012 229.189C675.012 227.136 676.654 226.059 679.938 225.96L681.664 225.905V225.274C681.664 224.476 681.491 223.889 681.145 223.511C680.804 223.128 680.257 222.936 679.502 222.936C678.655 222.936 677.696 223.196 676.626 223.715L676.153 222.537C676.654 222.265 677.202 222.052 677.795 221.897C678.395 221.742 678.995 221.665 679.595 221.665C680.807 221.665 681.704 221.934 682.286 222.472C682.873 223.01 683.167 223.873 683.167 225.061V232H682.026ZM678.547 230.915C679.506 230.915 680.257 230.652 680.801 230.126C681.352 229.6 681.627 228.864 681.627 227.918V227L680.087 227.064C678.862 227.108 677.978 227.299 677.434 227.64C676.896 227.974 676.626 228.496 676.626 229.208C676.626 229.764 676.793 230.188 677.127 230.479C677.468 230.769 677.941 230.915 678.547 230.915ZM689.633 230.915C689.905 230.915 690.168 230.896 690.422 230.859C690.675 230.816 690.876 230.772 691.025 230.729V231.907C690.858 231.988 690.611 232.053 690.283 232.102C689.961 232.158 689.67 232.186 689.411 232.186C687.444 232.186 686.46 231.15 686.46 229.078V223.029H685.004V222.287L686.46 221.646L687.11 219.476H688V221.832H690.951V223.029H688V229.013C688 229.625 688.146 230.095 688.437 230.423C688.727 230.751 689.126 230.915 689.633 230.915ZM706.305 232L704.44 226.035C704.322 225.67 704.103 224.841 703.781 223.548H703.707C703.46 224.631 703.243 225.466 703.058 226.053L701.137 232H699.356L696.582 221.832H698.196C698.852 224.386 699.35 226.332 699.69 227.667C700.036 229.003 700.234 229.903 700.284 230.367H700.358C700.426 230.015 700.534 229.56 700.683 229.003C700.837 228.441 700.97 227.995 701.082 227.667L702.946 221.832H704.616L706.435 227.667C706.781 228.731 707.016 229.625 707.14 230.349H707.214C707.239 230.126 707.304 229.783 707.409 229.319C707.52 228.855 708.166 226.359 709.348 221.832H710.943L708.132 232H706.305ZM717.085 232.186C715.582 232.186 714.395 231.728 713.522 230.812C712.657 229.897 712.224 228.626 712.224 227C712.224 225.361 712.626 224.059 713.43 223.094C714.24 222.129 715.325 221.646 716.686 221.646C717.96 221.646 718.968 222.067 719.71 222.908C720.453 223.743 720.824 224.847 720.824 226.22V227.194H713.819C713.85 228.388 714.15 229.294 714.719 229.913C715.294 230.531 716.102 230.84 717.141 230.84C718.235 230.84 719.318 230.611 720.388 230.154V231.527C719.843 231.762 719.327 231.929 718.838 232.028C718.356 232.133 717.771 232.186 717.085 232.186ZM716.667 222.936C715.851 222.936 715.199 223.202 714.71 223.734C714.228 224.266 713.943 225.002 713.856 225.942H719.172C719.172 224.971 718.956 224.229 718.523 223.715C718.09 223.196 717.472 222.936 716.667 222.936ZM734.647 232L734.341 230.553H734.267C733.759 231.19 733.252 231.623 732.745 231.852C732.244 232.074 731.616 232.186 730.862 232.186C729.854 232.186 729.062 231.926 728.487 231.406C727.918 230.887 727.633 230.148 727.633 229.189C727.633 227.136 729.275 226.059 732.56 225.96L734.285 225.905V225.274C734.285 224.476 734.112 223.889 733.766 223.511C733.425 223.128 732.878 222.936 732.124 222.936C731.276 222.936 730.318 223.196 729.248 223.715L728.774 222.537C729.275 222.265 729.823 222.052 730.417 221.897C731.016 221.742 731.616 221.665 732.216 221.665C733.429 221.665 734.325 221.934 734.907 222.472C735.494 223.01 735.788 223.873 735.788 225.061V232H734.647ZM731.168 230.915C732.127 230.915 732.878 230.652 733.422 230.126C733.973 229.6 734.248 228.864 734.248 227.918V227L732.708 227.064C731.483 227.108 730.599 227.299 730.055 227.64C729.517 227.974 729.248 228.496 729.248 229.208C729.248 229.764 729.415 230.188 729.749 230.479C730.089 230.769 730.562 230.915 731.168 230.915ZM740.51 232H738.97V221.832H740.51V232ZM738.84 219.077C738.84 218.724 738.927 218.467 739.1 218.307C739.273 218.14 739.49 218.056 739.75 218.056C739.997 218.056 740.21 218.14 740.39 218.307C740.569 218.474 740.659 218.73 740.659 219.077C740.659 219.423 740.569 219.683 740.39 219.856C740.21 220.023 739.997 220.106 739.75 220.106C739.49 220.106 739.273 220.023 739.1 219.856C738.927 219.683 738.84 219.423 738.84 219.077ZM756.736 232V225.385C756.736 224.575 756.563 223.969 756.217 223.567C755.87 223.159 755.332 222.955 754.603 222.955C753.644 222.955 752.936 223.23 752.478 223.78C752.02 224.331 751.792 225.178 751.792 226.322V232H750.251V225.385C750.251 224.575 750.078 223.969 749.732 223.567C749.386 223.159 748.844 222.955 748.108 222.955C747.144 222.955 746.435 223.245 745.984 223.827C745.539 224.402 745.316 225.348 745.316 226.666V232H743.776V221.832H745.028L745.279 223.224H745.353C745.644 222.729 746.052 222.342 746.578 222.064C747.11 221.786 747.703 221.646 748.359 221.646C749.948 221.646 750.987 222.222 751.476 223.372H751.55C751.853 222.84 752.292 222.42 752.868 222.11C753.443 221.801 754.098 221.646 754.834 221.646C755.985 221.646 756.845 221.943 757.414 222.537C757.989 223.125 758.276 224.068 758.276 225.367V232H756.736ZM769.678 230.915C769.95 230.915 770.213 230.896 770.467 230.859C770.72 230.816 770.921 230.772 771.07 230.729V231.907C770.903 231.988 770.655 232.053 770.328 232.102C770.006 232.158 769.715 232.186 769.456 232.186C767.489 232.186 766.505 231.15 766.505 229.078V223.029H765.049V222.287L766.505 221.646L767.155 219.476H768.045V221.832H770.996V223.029H768.045V229.013C768.045 229.625 768.191 230.095 768.481 230.423C768.772 230.751 769.171 230.915 769.678 230.915ZM781.887 226.907C781.887 228.564 781.47 229.86 780.635 230.794C779.8 231.722 778.646 232.186 777.174 232.186C776.265 232.186 775.458 231.972 774.753 231.545C774.048 231.119 773.504 230.506 773.12 229.708C772.737 228.911 772.545 227.977 772.545 226.907C772.545 225.249 772.959 223.96 773.788 223.038C774.617 222.11 775.767 221.646 777.239 221.646C778.662 221.646 779.791 222.12 780.625 223.066C781.467 224.012 781.887 225.292 781.887 226.907ZM774.141 226.907C774.141 228.206 774.4 229.195 774.92 229.875C775.439 230.556 776.203 230.896 777.211 230.896C778.22 230.896 778.983 230.559 779.503 229.885C780.029 229.204 780.292 228.212 780.292 226.907C780.292 225.614 780.029 224.634 779.503 223.966C778.983 223.292 778.213 222.955 777.193 222.955C776.185 222.955 775.424 223.285 774.911 223.947C774.397 224.609 774.141 225.596 774.141 226.907ZM796.453 230.636H796.369C795.658 231.669 794.594 232.186 793.178 232.186C791.848 232.186 790.812 231.731 790.07 230.822C789.334 229.913 788.966 228.62 788.966 226.944C788.966 225.268 789.337 223.966 790.079 223.038C790.821 222.11 791.854 221.646 793.178 221.646C794.557 221.646 795.615 222.147 796.351 223.149H796.471L796.406 222.417L796.369 221.702V217.564H797.909V232H796.657L796.453 230.636ZM793.373 230.896C794.424 230.896 795.185 230.611 795.655 230.042C796.131 229.467 796.369 228.543 796.369 227.269V226.944C796.369 225.503 796.128 224.476 795.646 223.864C795.169 223.245 794.405 222.936 793.354 222.936C792.451 222.936 791.758 223.289 791.276 223.994C790.8 224.693 790.562 225.682 790.562 226.962C790.562 228.261 790.8 229.242 791.276 229.903C791.752 230.565 792.451 230.896 793.373 230.896ZM809.96 226.907C809.96 228.564 809.543 229.86 808.708 230.794C807.873 231.722 806.72 232.186 805.248 232.186C804.338 232.186 803.531 231.972 802.826 231.545C802.121 231.119 801.577 230.506 801.193 229.708C800.81 228.911 800.618 227.977 800.618 226.907C800.618 225.249 801.033 223.96 801.861 223.038C802.69 222.11 803.84 221.646 805.312 221.646C806.735 221.646 807.864 222.12 808.699 223.066C809.54 224.012 809.96 225.292 809.96 226.907ZM802.214 226.907C802.214 228.206 802.474 229.195 802.993 229.875C803.513 230.556 804.277 230.896 805.285 230.896C806.293 230.896 807.057 230.559 807.576 229.885C808.102 229.204 808.365 228.212 808.365 226.907C808.365 225.614 808.102 224.634 807.576 223.966C807.057 223.292 806.287 222.955 805.266 222.955C804.258 222.955 803.497 223.285 802.984 223.947C802.471 224.609 802.214 225.596 802.214 226.907ZM825.908 232L824.043 226.035C823.926 225.67 823.706 224.841 823.385 223.548H823.311C823.063 224.631 822.847 225.466 822.661 226.053L820.741 232H818.959L816.186 221.832H817.8C818.455 224.386 818.953 226.332 819.293 227.667C819.64 229.003 819.838 229.903 819.887 230.367H819.961C820.029 230.015 820.138 229.56 820.286 229.003C820.441 228.441 820.574 227.995 820.685 227.667L822.55 221.832H824.22L826.038 227.667C826.384 228.731 826.619 229.625 826.743 230.349H826.817C826.842 230.126 826.907 229.783 827.012 229.319C827.124 228.855 827.77 226.359 828.951 221.832H830.547L827.736 232H825.908ZM833.933 232H832.393V221.832H833.933V232ZM832.263 219.077C832.263 218.724 832.35 218.467 832.523 218.307C832.696 218.14 832.913 218.056 833.172 218.056C833.42 218.056 833.633 218.14 833.812 218.307C833.992 218.474 834.082 218.73 834.082 219.077C834.082 219.423 833.992 219.683 833.812 219.856C833.633 220.023 833.42 220.106 833.172 220.106C832.913 220.106 832.696 220.023 832.523 219.856C832.35 219.683 832.263 219.423 832.263 219.077ZM840.483 230.915C840.755 230.915 841.018 230.896 841.271 230.859C841.525 230.816 841.726 230.772 841.875 230.729V231.907C841.708 231.988 841.46 232.053 841.132 232.102C840.811 232.158 840.52 232.186 840.26 232.186C838.293 232.186 837.31 231.15 837.31 229.078V223.029H835.854V222.287L837.31 221.646L837.959 219.476H838.85V221.832H841.8V223.029H838.85V229.013C838.85 229.625 838.995 230.095 839.286 230.423C839.577 230.751 839.976 230.915 840.483 230.915ZM850.874 232V225.422C850.874 224.594 850.685 223.975 850.308 223.567C849.93 223.159 849.34 222.955 848.536 222.955C847.466 222.955 846.683 223.245 846.188 223.827C845.7 224.408 845.456 225.361 845.456 226.684V232H843.916V217.564H845.456V221.934C845.456 222.46 845.431 222.896 845.381 223.242H845.474C845.777 222.754 846.207 222.37 846.764 222.092C847.326 221.807 847.967 221.665 848.684 221.665C849.927 221.665 850.858 221.962 851.477 222.556C852.101 223.143 852.414 224.08 852.414 225.367V232H850.874ZM860.754 218.437H864.585C866.385 218.437 867.687 218.706 868.491 219.244C869.295 219.782 869.697 220.632 869.697 221.795C869.697 222.599 869.472 223.264 869.02 223.79C868.575 224.309 867.922 224.646 867.062 224.801V224.894C869.122 225.246 870.152 226.328 870.152 228.141C870.152 229.353 869.741 230.299 868.918 230.979C868.102 231.66 866.957 232 865.485 232H860.754V218.437ZM862.331 224.244H864.929C866.042 224.244 866.843 224.071 867.332 223.725C867.82 223.372 868.064 222.781 868.064 221.953C868.064 221.192 867.792 220.645 867.248 220.311C866.704 219.97 865.838 219.8 864.65 219.8H862.331V224.244ZM862.331 225.58V230.655H865.161C866.255 230.655 867.078 230.444 867.628 230.024C868.185 229.597 868.463 228.932 868.463 228.029C868.463 227.188 868.179 226.57 867.61 226.174C867.047 225.778 866.187 225.58 865.031 225.58H862.331ZM881.619 226.907C881.619 228.564 881.201 229.86 880.366 230.794C879.531 231.722 878.378 232.186 876.906 232.186C875.997 232.186 875.189 231.972 874.484 231.545C873.779 231.119 873.235 230.506 872.852 229.708C872.468 228.911 872.276 227.977 872.276 226.907C872.276 225.249 872.691 223.96 873.52 223.038C874.348 222.11 875.499 221.646 876.971 221.646C878.393 221.646 879.522 222.12 880.357 223.066C881.198 224.012 881.619 225.292 881.619 226.907ZM873.872 226.907C873.872 228.206 874.132 229.195 874.651 229.875C875.171 230.556 875.935 230.896 876.943 230.896C877.951 230.896 878.715 230.559 879.234 229.885C879.76 229.204 880.023 228.212 880.023 226.907C880.023 225.614 879.76 224.634 879.234 223.966C878.715 223.292 877.945 222.955 876.924 222.955C875.916 222.955 875.155 223.285 874.642 223.947C874.129 224.609 873.872 225.596 873.872 226.907ZM887.612 230.915C887.884 230.915 888.147 230.896 888.4 230.859C888.654 230.816 888.855 230.772 889.003 230.729V231.907C888.836 231.988 888.589 232.053 888.261 232.102C887.94 232.158 887.649 232.186 887.389 232.186C885.422 232.186 884.439 231.15 884.439 229.078V223.029H882.982V222.287L884.439 221.646L885.088 219.476H885.979V221.832H888.929V223.029H885.979V229.013C885.979 229.625 886.124 230.095 886.415 230.423C886.706 230.751 887.105 230.915 887.612 230.915ZM894.329 230.915C894.601 230.915 894.864 230.896 895.117 230.859C895.371 230.816 895.572 230.772 895.72 230.729V231.907C895.553 231.988 895.306 232.053 894.978 232.102C894.656 232.158 894.366 232.186 894.106 232.186C892.139 232.186 891.156 231.15 891.156 229.078V223.029H889.699V222.287L891.156 221.646L891.805 219.476H892.696V221.832H895.646V223.029H892.696V229.013C892.696 229.625 892.841 230.095 893.132 230.423C893.423 230.751 893.821 230.915 894.329 230.915ZM899.301 232H897.761V217.564H899.301V232ZM906.862 232.186C905.359 232.186 904.172 231.728 903.3 230.812C902.434 229.897 902.001 228.626 902.001 227C902.001 225.361 902.403 224.059 903.207 223.094C904.017 222.129 905.103 221.646 906.463 221.646C907.737 221.646 908.746 222.067 909.488 222.908C910.23 223.743 910.601 224.847 910.601 226.22V227.194H903.597C903.628 228.388 903.928 229.294 904.497 229.913C905.072 230.531 905.879 230.84 906.918 230.84C908.013 230.84 909.095 230.611 910.165 230.154V231.527C909.621 231.762 909.104 231.929 908.616 232.028C908.133 232.133 907.549 232.186 906.862 232.186ZM906.445 222.936C905.628 222.936 904.976 223.202 904.487 223.734C904.005 224.266 903.72 225.002 903.634 225.942H908.95C908.95 224.971 908.733 224.229 908.3 223.715C907.867 223.196 907.249 222.936 906.445 222.936ZM913.013 231.017C913.013 230.602 913.106 230.29 913.292 230.08C913.483 229.863 913.755 229.755 914.108 229.755C914.467 229.755 914.745 229.863 914.943 230.08C915.147 230.29 915.249 230.602 915.249 231.017C915.249 231.419 915.147 231.728 914.943 231.944C914.739 232.161 914.46 232.269 914.108 232.269C913.792 232.269 913.53 232.173 913.319 231.981C913.115 231.784 913.013 231.462 913.013 231.017Z" fill="#414141"/>
<path d="M437.694 72.16C439.134 72.16 440.334 72.112 441.294 72.016V72.976C439.502 73.392 438.238 74.784 437.502 77.152L428.43 106.24H428.046H427.662L419.31 81.52L411.678 106.24H411.294H410.91L400.734 76.048C400.062 74.064 398.958 73.04 397.422 72.976V72.016C398.734 72.112 400.446 72.16 402.558 72.16C404.862 72.16 406.59 72.112 407.742 72.016V72.976C406.878 73.04 406.27 73.2 405.918 73.456C405.566 73.712 405.39 74.112 405.39 74.656C405.39 75.168 405.566 75.952 405.918 77.008L412.926 98.416L418.782 79.84L417.486 76.048C416.846 74.064 415.902 73.04 414.654 72.976V72.016C415.806 72.112 417.358 72.16 419.31 72.16C422.062 72.16 424.11 72.112 425.454 72.016V72.976C424.238 73.04 423.39 73.184 422.91 73.408C422.43 73.6 422.19 74.032 422.19 74.704C422.19 75.28 422.35 76.048 422.67 77.008L429.582 98.368L435.486 79.792C435.998 78.224 436.254 76.928 436.254 75.904C436.254 74.848 435.934 74.112 435.294 73.696C434.654 73.248 433.614 73.008 432.174 72.976V72.016C433.998 72.112 435.838 72.16 437.694 72.16ZM460.107 100.24C459.531 102 458.443 103.52 456.843 104.8C455.275 106.048 453.371 106.672 451.131 106.672C448.859 106.672 446.891 106.16 445.227 105.136C443.563 104.08 442.283 102.624 441.387 100.768C440.523 98.88 440.091 96.704 440.091 94.24C440.091 91.456 440.539 89.04 441.435 86.992C442.331 84.944 443.595 83.376 445.227 82.288C446.859 81.168 448.763 80.608 450.939 80.608C453.819 80.608 456.027 81.488 457.563 83.248C459.131 84.976 459.915 87.616 459.915 91.168H444.891C444.795 92.064 444.747 93.088 444.747 94.24C444.747 96.352 445.083 98.192 445.755 99.76C446.459 101.328 447.371 102.544 448.491 103.408C449.643 104.24 450.843 104.656 452.091 104.656C453.627 104.656 454.987 104.288 456.171 103.552C457.355 102.816 458.347 101.584 459.147 99.856L460.107 100.24ZM450.747 81.52C449.243 81.52 447.947 82.256 446.859 83.728C445.771 85.2 445.099 87.376 444.843 90.256H455.307C455.371 87.76 455.003 85.68 454.203 84.016C453.435 82.352 452.283 81.52 450.747 81.52ZM489.765 80.608C492.485 80.608 494.677 81.728 496.341 83.968C498.037 86.208 498.885 89.44 498.885 93.664C498.885 96.448 498.405 98.816 497.445 100.768C496.485 102.72 495.189 104.192 493.557 105.184C491.957 106.176 490.165 106.672 488.181 106.672C486.997 106.672 485.845 106.432 484.725 105.952C483.637 105.472 482.677 104.784 481.845 103.888L478.437 106.768L477.621 106.432C477.845 105.632 477.957 104.704 477.957 103.648V74.176C477.957 72.704 477.685 71.632 477.141 70.96C476.597 70.288 475.653 69.952 474.309 69.952V68.944C475.333 69.04 476.325 69.088 477.285 69.088C479.301 69.088 480.965 68.864 482.277 68.416V85.744C482.981 84.112 483.989 82.848 485.301 81.952C486.645 81.056 488.133 80.608 489.765 80.608ZM487.797 105.568C489.941 105.568 491.541 104.608 492.597 102.688C493.685 100.736 494.229 97.728 494.229 93.664C494.229 89.76 493.749 86.848 492.789 84.928C491.829 83.008 490.357 82.048 488.373 82.048C487.029 82.048 485.797 82.576 484.677 83.632C483.557 84.656 482.757 86.112 482.277 88V103.216C483.013 103.984 483.861 104.576 484.821 104.992C485.781 105.376 486.773 105.568 487.797 105.568ZM523.388 100.24C522.812 102 521.724 103.52 520.124 104.8C518.556 106.048 516.652 106.672 514.412 106.672C512.14 106.672 510.172 106.16 508.508 105.136C506.844 104.08 505.564 102.624 504.668 100.768C503.804 98.88 503.372 96.704 503.372 94.24C503.372 91.456 503.82 89.04 504.716 86.992C505.612 84.944 506.876 83.376 508.508 82.288C510.14 81.168 512.044 80.608 514.22 80.608C517.1 80.608 519.308 81.488 520.844 83.248C522.412 84.976 523.196 87.616 523.196 91.168H508.172C508.076 92.064 508.028 93.088 508.028 94.24C508.028 96.352 508.364 98.192 509.036 99.76C509.74 101.328 510.652 102.544 511.772 103.408C512.924 104.24 514.124 104.656 515.372 104.656C516.908 104.656 518.268 104.288 519.452 103.552C520.636 102.816 521.628 101.584 522.428 99.856L523.388 100.24ZM514.028 81.52C512.524 81.52 511.228 82.256 510.14 83.728C509.052 85.2 508.38 87.376 508.124 90.256H518.588C518.652 87.76 518.284 85.68 517.484 84.016C516.716 82.352 515.564 81.52 514.028 81.52ZM534.469 101.536C534.469 102.848 534.741 103.76 535.285 104.272C535.829 104.752 536.773 104.992 538.117 104.992V106C535.173 105.872 533.237 105.808 532.309 105.808C531.381 105.808 529.445 105.872 526.501 106V104.992C527.845 104.992 528.789 104.752 529.333 104.272C529.877 103.76 530.149 102.848 530.149 101.536V74.128C530.149 72.656 529.877 71.584 529.333 70.912C528.789 70.24 527.845 69.904 526.501 69.904V68.896C527.493 68.992 528.485 69.04 529.477 69.04C531.493 69.04 533.157 68.816 534.469 68.368V101.536ZM546.044 69.28C546.876 69.28 547.596 69.584 548.204 70.192C548.812 70.8 549.116 71.52 549.116 72.352C549.116 73.184 548.812 73.904 548.204 74.512C547.596 75.12 546.876 75.424 546.044 75.424C545.212 75.424 544.492 75.12 543.884 74.512C543.276 73.904 542.972 73.184 542.972 72.352C542.972 71.52 543.276 70.8 543.884 70.192C544.492 69.584 545.212 69.28 546.044 69.28ZM548.54 101.536C548.54 102.848 548.812 103.76 549.356 104.272C549.9 104.752 550.844 104.992 552.188 104.992V106C549.244 105.872 547.308 105.808 546.38 105.808C545.452 105.808 543.516 105.872 540.572 106V104.992C541.916 104.992 542.86 104.752 543.404 104.272C543.948 103.76 544.22 102.848 544.22 101.536V86.512C544.22 85.04 543.948 83.968 543.404 83.296C542.86 82.624 541.916 82.288 540.572 82.288V81.28C541.596 81.376 542.588 81.424 543.548 81.424C545.564 81.424 547.228 81.2 548.54 80.752V101.536ZM575.466 100.24C574.89 102 573.802 103.52 572.202 104.8C570.634 106.048 568.73 106.672 566.49 106.672C564.218 106.672 562.25 106.16 560.586 105.136C558.922 104.08 557.642 102.624 556.746 100.768C555.882 98.88 555.45 96.704 555.45 94.24C555.45 91.456 555.898 89.04 556.794 86.992C557.69 84.944 558.954 83.376 560.586 82.288C562.218 81.168 564.122 80.608 566.298 80.608C569.178 80.608 571.386 81.488 572.922 83.248C574.49 84.976 575.274 87.616 575.274 91.168H560.25C560.154 92.064 560.106 93.088 560.106 94.24C560.106 96.352 560.442 98.192 561.114 99.76C561.818 101.328 562.73 102.544 563.85 103.408C565.002 104.24 566.202 104.656 567.45 104.656C568.986 104.656 570.346 104.288 571.53 103.552C572.714 102.816 573.706 101.584 574.506 99.856L575.466 100.24ZM566.106 81.52C564.602 81.52 563.306 82.256 562.218 83.728C561.13 85.2 560.458 87.376 560.202 90.256H570.666C570.73 87.76 570.362 85.68 569.562 84.016C568.794 82.352 567.642 81.52 566.106 81.52ZM597.016 81.424C598.424 81.424 599.64 81.376 600.664 81.28V82.24C600.024 82.304 599.448 82.592 598.936 83.104C598.456 83.616 597.992 84.448 597.544 85.6L589.672 106.24H588.856L580.024 84.976C579.544 83.888 579.08 83.168 578.632 82.816C578.184 82.464 577.72 82.288 577.24 82.288V81.28C578.904 81.408 580.312 81.472 581.464 81.472C583.928 81.472 586.008 81.408 587.704 81.28V82.288C586.52 82.288 585.656 82.384 585.112 82.576C584.568 82.736 584.296 83.184 584.296 83.92C584.296 84.368 584.472 85.072 584.824 86.032L590.728 100.624L596.008 86.752C596.36 85.792 596.536 85.04 596.536 84.496C596.536 83.76 596.248 83.232 595.672 82.912C595.128 82.56 594.232 82.336 592.984 82.24V81.28C594.648 81.376 595.992 81.424 597.016 81.424ZM622.622 100.24C622.046 102 620.958 103.52 619.358 104.8C617.79 106.048 615.886 106.672 613.646 106.672C611.374 106.672 609.406 106.16 607.742 105.136C606.078 104.08 604.798 102.624 603.902 100.768C603.038 98.88 602.606 96.704 602.606 94.24C602.606 91.456 603.054 89.04 603.95 86.992C604.846 84.944 606.11 83.376 607.742 82.288C609.374 81.168 611.278 80.608 613.454 80.608C616.334 80.608 618.542 81.488 620.078 83.248C621.646 84.976 622.43 87.616 622.43 91.168H607.406C607.31 92.064 607.262 93.088 607.262 94.24C607.262 96.352 607.598 98.192 608.27 99.76C608.974 101.328 609.886 102.544 611.006 103.408C612.158 104.24 613.358 104.656 614.606 104.656C616.142 104.656 617.502 104.288 618.686 103.552C619.87 102.816 620.862 101.584 621.662 99.856L622.622 100.24ZM613.262 81.52C611.758 81.52 610.462 82.256 609.374 83.728C608.286 85.2 607.614 87.376 607.358 90.256H617.822C617.886 87.76 617.518 85.68 616.718 84.016C615.95 82.352 614.798 81.52 613.262 81.52ZM645.143 81.328H652.247V82.288H645.143V100.864C645.143 102.304 645.399 103.344 645.911 103.984C646.455 104.624 647.223 104.944 648.215 104.944C649.207 104.944 650.055 104.544 650.759 103.744C651.463 102.944 652.055 101.632 652.535 99.808L653.495 100.048C652.695 104.464 650.615 106.672 647.255 106.672C646.167 106.672 645.271 106.544 644.567 106.288C643.863 106.032 643.239 105.632 642.695 105.088C641.991 104.384 641.495 103.52 641.207 102.496C640.951 101.472 640.823 100.096 640.823 98.368V82.288H636.215V81.328H640.823V73.984C642.615 73.92 644.055 73.696 645.143 73.312V81.328ZM661.92 86.368C662.72 84.352 663.824 82.896 665.232 82C666.672 81.072 668.288 80.608 670.08 80.608C672.32 80.608 674.016 81.216 675.168 82.432C675.776 83.072 676.208 83.872 676.464 84.832C676.72 85.792 676.848 87.088 676.848 88.72V101.536C676.848 102.848 677.12 103.76 677.664 104.272C678.208 104.752 679.152 104.992 680.496 104.992V106C677.552 105.872 675.632 105.808 674.736 105.808C673.84 105.808 672.048 105.872 669.36 106V104.992C670.544 104.992 671.36 104.752 671.808 104.272C672.288 103.76 672.528 102.848 672.528 101.536V87.664C672.528 85.872 672.272 84.512 671.76 83.584C671.248 82.624 670.208 82.144 668.64 82.144C667.328 82.144 666.16 82.512 665.136 83.248C664.144 83.984 663.36 85.024 662.784 86.368C662.208 87.68 661.92 89.168 661.92 90.832V101.536C661.92 102.848 662.144 103.76 662.592 104.272C663.072 104.752 663.904 104.992 665.088 104.992V106C662.4 105.872 660.608 105.808 659.712 105.808C658.816 105.808 656.896 105.872 653.952 106V104.992C655.296 104.992 656.24 104.752 656.784 104.272C657.328 103.76 657.6 102.848 657.6 101.536V74.176C657.6 72.704 657.328 71.632 656.784 70.96C656.24 70.288 655.296 69.952 653.952 69.952V68.944C654.976 69.04 655.968 69.088 656.928 69.088C658.944 69.088 660.608 68.864 661.92 68.416V86.368ZM689.035 106.336C687.019 106.336 685.515 105.84 684.523 104.848C683.563 103.824 683.083 102.416 683.083 100.624C683.083 99.184 683.467 98 684.235 97.072C685.035 96.144 685.963 95.408 687.019 94.864C688.107 94.32 689.531 93.744 691.291 93.136C693.083 92.528 694.411 91.968 695.275 91.456C696.139 90.944 696.571 90.256 696.571 89.392V86.416C696.571 84.56 696.171 83.296 695.371 82.624C694.603 81.92 693.515 81.568 692.107 81.568C689.867 81.568 688.283 82.144 687.355 83.296C687.995 83.456 688.523 83.792 688.939 84.304C689.387 84.816 689.611 85.456 689.611 86.224C689.611 87.024 689.355 87.664 688.843 88.144C688.331 88.592 687.675 88.816 686.875 88.816C685.979 88.816 685.307 88.544 684.859 88C684.411 87.424 684.187 86.736 684.187 85.936C684.187 85.168 684.363 84.528 684.715 84.016C685.099 83.504 685.659 82.992 686.395 82.48C687.163 81.936 688.139 81.488 689.323 81.136C690.507 80.784 691.803 80.608 693.211 80.608C695.707 80.608 697.595 81.2 698.875 82.384C699.675 83.12 700.203 84.016 700.459 85.072C700.747 86.096 700.891 87.456 700.891 89.152V102.496C700.891 103.296 701.003 103.872 701.227 104.224C701.451 104.576 701.835 104.752 702.379 104.752C702.763 104.752 703.115 104.672 703.435 104.512C703.787 104.32 704.155 104.064 704.539 103.744L705.067 104.56C704.235 105.2 703.515 105.664 702.907 105.952C702.331 106.208 701.595 106.336 700.699 106.336C699.163 106.336 698.091 105.952 697.483 105.184C696.875 104.416 696.571 103.376 696.571 102.064C695.611 103.664 694.507 104.784 693.259 105.424C692.011 106.032 690.603 106.336 689.035 106.336ZM691.147 104.416C693.259 104.416 695.067 103.2 696.571 100.768V91.36C696.283 91.808 695.883 92.176 695.371 92.464C694.859 92.752 694.075 93.136 693.019 93.616C691.803 94.128 690.811 94.624 690.043 95.104C689.307 95.552 688.667 96.176 688.123 96.976C687.579 97.776 687.307 98.8 687.307 100.048C687.307 101.488 687.659 102.576 688.363 103.312C689.067 104.048 689.995 104.416 691.147 104.416ZM714.237 81.328H721.341V82.288H714.237V100.864C714.237 102.304 714.493 103.344 715.005 103.984C715.549 104.624 716.317 104.944 717.309 104.944C718.301 104.944 719.149 104.544 719.853 103.744C720.557 102.944 721.149 101.632 721.629 99.808L722.589 100.048C721.789 104.464 719.709 106.672 716.349 106.672C715.261 106.672 714.365 106.544 713.661 106.288C712.957 106.032 712.333 105.632 711.789 105.088C711.085 104.384 710.589 103.52 710.301 102.496C710.045 101.472 709.917 100.096 709.917 98.368V82.288H705.309V81.328H709.917V73.984C711.709 73.92 713.149 73.696 714.237 73.312V81.328ZM741.753 81.328H748.857V82.288H741.753V100.864C741.753 102.304 742.009 103.344 742.521 103.984C743.065 104.624 743.833 104.944 744.825 104.944C745.817 104.944 746.665 104.544 747.369 103.744C748.073 102.944 748.665 101.632 749.145 99.808L750.105 100.048C749.305 104.464 747.225 106.672 743.865 106.672C742.777 106.672 741.881 106.544 741.177 106.288C740.473 106.032 739.849 105.632 739.305 105.088C738.601 104.384 738.105 103.52 737.817 102.496C737.561 101.472 737.433 100.096 737.433 98.368V82.288H732.825V81.328H737.433V73.984C739.225 73.92 740.665 73.696 741.753 73.312V81.328ZM771.826 100.24C771.25 102 770.162 103.52 768.562 104.8C766.994 106.048 765.09 106.672 762.85 106.672C760.578 106.672 758.61 106.16 756.946 105.136C755.282 104.08 754.002 102.624 753.106 100.768C752.242 98.88 751.81 96.704 751.81 94.24C751.81 91.456 752.258 89.04 753.154 86.992C754.05 84.944 755.314 83.376 756.946 82.288C758.578 81.168 760.482 80.608 762.658 80.608C765.538 80.608 767.746 81.488 769.282 83.248C770.85 84.976 771.634 87.616 771.634 91.168H756.61C756.514 92.064 756.466 93.088 756.466 94.24C756.466 96.352 756.802 98.192 757.474 99.76C758.178 101.328 759.09 102.544 760.21 103.408C761.362 104.24 762.562 104.656 763.81 104.656C765.346 104.656 766.706 104.288 767.89 103.552C769.074 102.816 770.066 101.584 770.866 99.856L771.826 100.24ZM762.466 81.52C760.962 81.52 759.666 82.256 758.578 83.728C757.49 85.2 756.818 87.376 756.562 90.256H767.026C767.09 87.76 766.722 85.68 765.922 84.016C765.154 82.352 764.002 81.52 762.466 81.52ZM781.707 106.336C779.691 106.336 778.187 105.84 777.195 104.848C776.235 103.824 775.755 102.416 775.755 100.624C775.755 99.184 776.139 98 776.907 97.072C777.707 96.144 778.635 95.408 779.691 94.864C780.779 94.32 782.203 93.744 783.963 93.136C785.755 92.528 787.083 91.968 787.947 91.456C788.811 90.944 789.243 90.256 789.243 89.392V86.416C789.243 84.56 788.843 83.296 788.043 82.624C787.275 81.92 786.187 81.568 784.779 81.568C782.539 81.568 780.955 82.144 780.027 83.296C780.667 83.456 781.195 83.792 781.611 84.304C782.059 84.816 782.283 85.456 782.283 86.224C782.283 87.024 782.027 87.664 781.515 88.144C781.003 88.592 780.347 88.816 779.547 88.816C778.651 88.816 777.979 88.544 777.531 88C777.083 87.424 776.859 86.736 776.859 85.936C776.859 85.168 777.035 84.528 777.387 84.016C777.771 83.504 778.331 82.992 779.067 82.48C779.835 81.936 780.811 81.488 781.995 81.136C783.179 80.784 784.475 80.608 785.883 80.608C788.379 80.608 790.267 81.2 791.547 82.384C792.347 83.12 792.875 84.016 793.131 85.072C793.419 86.096 793.563 87.456 793.563 89.152V102.496C793.563 103.296 793.675 103.872 793.899 104.224C794.123 104.576 794.507 104.752 795.051 104.752C795.435 104.752 795.787 104.672 796.107 104.512C796.459 104.32 796.827 104.064 797.211 103.744L797.739 104.56C796.907 105.2 796.187 105.664 795.579 105.952C795.003 106.208 794.267 106.336 793.371 106.336C791.835 106.336 790.763 105.952 790.155 105.184C789.547 104.416 789.243 103.376 789.243 102.064C788.283 103.664 787.179 104.784 785.931 105.424C784.683 106.032 783.275 106.336 781.707 106.336ZM783.819 104.416C785.931 104.416 787.739 103.2 789.243 100.768V91.36C788.955 91.808 788.555 92.176 788.043 92.464C787.531 92.752 786.747 93.136 785.691 93.616C784.475 94.128 783.483 94.624 782.715 95.104C781.979 95.552 781.339 96.176 780.795 96.976C780.251 97.776 779.979 98.8 779.979 100.048C779.979 101.488 780.331 102.576 781.035 103.312C781.739 104.048 782.667 104.416 783.819 104.416ZM836.045 101.536C836.045 102.848 836.317 103.76 836.861 104.272C837.405 104.752 838.349 104.992 839.693 104.992V106C836.749 105.872 834.829 105.808 833.933 105.808C833.037 105.808 831.245 105.872 828.557 106V104.992C829.741 104.992 830.557 104.752 831.005 104.272C831.485 103.76 831.725 102.848 831.725 101.536V87.664C831.725 86.448 831.645 85.472 831.485 84.736C831.357 83.968 831.021 83.344 830.477 82.864C829.965 82.384 829.165 82.144 828.077 82.144C826.861 82.144 825.757 82.528 824.765 83.296C823.773 84.064 822.989 85.12 822.413 86.464C821.869 87.776 821.597 89.232 821.597 90.832V101.536C821.597 102.848 821.869 103.76 822.413 104.272C822.957 104.752 823.901 104.992 825.245 104.992V106C822.301 105.872 820.381 105.808 819.485 105.808C818.589 105.808 816.797 105.872 814.109 106V104.992C815.293 104.992 816.109 104.752 816.557 104.272C817.037 103.76 817.277 102.848 817.277 101.536V87.664C817.277 86.448 817.197 85.472 817.037 84.736C816.909 83.968 816.573 83.344 816.029 82.864C815.517 82.384 814.717 82.144 813.629 82.144C812.413 82.144 811.309 82.528 810.317 83.296C809.325 84.064 808.541 85.12 807.965 86.464C807.421 87.808 807.149 89.28 807.149 90.88V101.536C807.149 102.848 807.373 103.76 807.821 104.272C808.301 104.752 809.133 104.992 810.317 104.992V106C807.629 105.872 805.837 105.808 804.941 105.808C804.045 105.808 802.125 105.872 799.181 106V104.992C800.525 104.992 801.469 104.752 802.013 104.272C802.557 103.76 802.829 102.848 802.829 101.536V86.512C802.829 85.04 802.557 83.968 802.013 83.296C801.469 82.624 800.525 82.288 799.181 82.288V81.28C800.205 81.376 801.197 81.424 802.157 81.424C804.173 81.424 805.837 81.2 807.149 80.752V86.416C807.917 84.432 809.005 82.976 810.413 82.048C811.821 81.088 813.357 80.608 815.021 80.608C817.197 80.608 818.861 81.216 820.013 82.432C820.813 83.264 821.309 84.544 821.501 86.272C822.301 84.256 823.405 82.816 824.813 81.952C826.221 81.056 827.773 80.608 829.469 80.608C831.645 80.608 833.309 81.216 834.461 82.432C835.037 83.072 835.437 83.888 835.661 84.88C835.917 85.872 836.045 87.152 836.045 88.72V101.536ZM850.382 80.608C851.534 80.608 852.558 80.784 853.454 81.136C854.35 81.488 855.07 81.904 855.614 82.384C855.966 82.64 856.254 82.768 856.478 82.768C857.054 82.768 857.406 82.064 857.534 80.656H858.638C858.51 82.224 858.446 84.944 858.446 88.816H857.342C856.99 86.704 856.302 84.96 855.278 83.584C854.286 82.208 852.798 81.52 850.814 81.52C849.662 81.52 848.718 81.856 847.982 82.528C847.246 83.168 846.878 84.064 846.878 85.216C846.878 86.336 847.262 87.28 848.03 88.048C848.798 88.784 850.03 89.68 851.726 90.736C852.014 90.896 852.446 91.168 853.022 91.552C854.494 92.512 855.678 93.36 856.574 94.096C857.47 94.832 858.19 95.68 858.734 96.64C859.31 97.6 859.598 98.704 859.598 99.952C859.598 102.064 858.798 103.712 857.198 104.896C855.63 106.08 853.694 106.672 851.39 106.672C849.95 106.672 848.686 106.448 847.598 106C846.894 105.648 846.238 105.216 845.63 104.704C845.502 104.576 845.358 104.512 845.198 104.512C844.974 104.512 844.766 104.672 844.574 104.992C844.414 105.312 844.286 105.76 844.19 106.336H843.086C843.214 104.512 843.278 101.312 843.278 96.736H844.382C844.734 99.744 845.374 102 846.302 103.504C847.23 104.976 848.814 105.712 851.054 105.712C852.174 105.712 853.166 105.344 854.03 104.608C854.894 103.872 855.326 102.72 855.326 101.152C855.326 99.904 854.894 98.848 854.03 97.984C853.198 97.12 851.822 96.08 849.902 94.864C848.334 93.872 847.118 93.056 846.254 92.416C845.422 91.776 844.718 90.992 844.142 90.064C843.566 89.136 843.278 88.048 843.278 86.8C843.278 84.784 843.95 83.248 845.294 82.192C846.638 81.136 848.334 80.608 850.382 80.608ZM912.076 101.536C912.076 102.848 912.348 103.76 912.892 104.272C913.436 104.752 914.38 104.992 915.724 104.992V106C912.78 105.872 910.86 105.808 909.964 105.808C909.068 105.808 907.276 105.872 904.588 106V104.992C905.772 104.992 906.588 104.752 907.036 104.272C907.516 103.76 907.756 102.848 907.756 101.536V87.664C907.756 86.448 907.676 85.472 907.516 84.736C907.388 83.968 907.052 83.344 906.508 82.864C905.996 82.384 905.196 82.144 904.108 82.144C902.892 82.144 901.788 82.528 900.796 83.296C899.804 84.064 899.02 85.12 898.444 86.464C897.9 87.776 897.628 89.232 897.628 90.832V101.536C897.628 102.848 897.9 103.76 898.444 104.272C898.988 104.752 899.932 104.992 901.276 104.992V106C898.332 105.872 896.412 105.808 895.516 105.808C894.62 105.808 892.828 105.872 890.14 106V104.992C891.324 104.992 892.14 104.752 892.588 104.272C893.068 103.76 893.308 102.848 893.308 101.536V87.664C893.308 86.448 893.228 85.472 893.068 84.736C892.94 83.968 892.604 83.344 892.06 82.864C891.548 82.384 890.748 82.144 889.66 82.144C888.444 82.144 887.34 82.528 886.348 83.296C885.356 84.064 884.572 85.12 883.996 86.464C883.452 87.808 883.18 89.28 883.18 90.88V101.536C883.18 102.848 883.404 103.76 883.852 104.272C884.332 104.752 885.164 104.992 886.348 104.992V106C883.66 105.872 881.868 105.808 880.972 105.808C880.076 105.808 878.156 105.872 875.212 106V104.992C876.556 104.992 877.5 104.752 878.044 104.272C878.588 103.76 878.86 102.848 878.86 101.536V86.512C878.86 85.04 878.588 83.968 878.044 83.296C877.5 82.624 876.556 82.288 875.212 82.288V81.28C876.236 81.376 877.228 81.424 878.188 81.424C880.204 81.424 881.868 81.2 883.18 80.752V86.416C883.948 84.432 885.036 82.976 886.444 82.048C887.852 81.088 889.388 80.608 891.052 80.608C893.228 80.608 894.892 81.216 896.044 82.432C896.844 83.264 897.34 84.544 897.532 86.272C898.332 84.256 899.436 82.816 900.844 81.952C902.252 81.056 903.804 80.608 905.5 80.608C907.676 80.608 909.34 81.216 910.492 82.432C911.068 83.072 911.468 83.888 911.692 84.88C911.948 85.872 912.076 87.152 912.076 88.72V101.536ZM939.614 100.816C939.614 102.288 939.886 103.36 940.43 104.032C940.974 104.704 941.918 105.04 943.262 105.04V106.048C942.27 105.952 941.278 105.904 940.286 105.904C938.27 105.904 936.606 106.128 935.294 106.576V100.912C934.526 102.896 933.438 104.352 932.03 105.28C930.622 106.208 929.086 106.672 927.422 106.672C925.246 106.672 923.582 106.064 922.43 104.848C921.854 104.208 921.438 103.392 921.182 102.4C920.958 101.408 920.846 100.128 920.846 98.56V86.512C920.846 85.04 920.574 83.968 920.03 83.296C919.486 82.624 918.542 82.288 917.198 82.288V81.28C918.19 81.376 919.182 81.424 920.174 81.424C922.19 81.424 923.854 81.2 925.166 80.752V99.616C925.166 100.832 925.23 101.824 925.358 102.592C925.518 103.328 925.854 103.936 926.366 104.416C926.91 104.896 927.726 105.136 928.814 105.136C930.03 105.136 931.134 104.752 932.126 103.984C933.118 103.216 933.886 102.176 934.43 100.864C935.006 99.52 935.294 98.048 935.294 96.448V86.512C935.294 85.04 935.022 83.968 934.478 83.296C933.934 82.624 932.99 82.288 931.646 82.288V81.28C932.638 81.376 933.63 81.424 934.622 81.424C936.638 81.424 938.302 81.2 939.614 80.752V100.816ZM954.304 80.608C955.456 80.608 956.48 80.784 957.376 81.136C958.272 81.488 958.992 81.904 959.536 82.384C959.888 82.64 960.176 82.768 960.4 82.768C960.976 82.768 961.328 82.064 961.456 80.656H962.56C962.432 82.224 962.368 84.944 962.368 88.816H961.264C960.912 86.704 960.224 84.96 959.2 83.584C958.208 82.208 956.72 81.52 954.736 81.52C953.584 81.52 952.64 81.856 951.904 82.528C951.168 83.168 950.8 84.064 950.8 85.216C950.8 86.336 951.184 87.28 951.952 88.048C952.72 88.784 953.952 89.68 955.648 90.736C955.936 90.896 956.368 91.168 956.944 91.552C958.416 92.512 959.6 93.36 960.496 94.096C961.392 94.832 962.112 95.68 962.656 96.64C963.232 97.6 963.52 98.704 963.52 99.952C963.52 102.064 962.72 103.712 961.12 104.896C959.552 106.08 957.616 106.672 955.312 106.672C953.872 106.672 952.608 106.448 951.52 106C950.816 105.648 950.16 105.216 949.552 104.704C949.424 104.576 949.28 104.512 949.12 104.512C948.896 104.512 948.688 104.672 948.496 104.992C948.336 105.312 948.208 105.76 948.112 106.336H947.008C947.136 104.512 947.2 101.312 947.2 96.736H948.304C948.656 99.744 949.296 102 950.224 103.504C951.152 104.976 952.736 105.712 954.976 105.712C956.096 105.712 957.088 105.344 957.952 104.608C958.816 103.872 959.248 102.72 959.248 101.152C959.248 99.904 958.816 98.848 957.952 97.984C957.12 97.12 955.744 96.08 953.824 94.864C952.256 93.872 951.04 93.056 950.176 92.416C949.344 91.776 948.64 90.992 948.064 90.064C947.488 89.136 947.2 88.048 947.2 86.8C947.2 84.784 947.872 83.248 949.216 82.192C950.56 81.136 952.256 80.608 954.304 80.608ZM974.909 81.328H982.013V82.288H974.909V100.864C974.909 102.304 975.165 103.344 975.677 103.984C976.221 104.624 976.989 104.944 977.981 104.944C978.973 104.944 979.821 104.544 980.525 103.744C981.229 102.944 981.821 101.632 982.301 99.808L983.261 100.048C982.461 104.464 980.381 106.672 977.021 106.672C975.933 106.672 975.037 106.544 974.333 106.288C973.629 106.032 973.005 105.632 972.461 105.088C971.757 104.384 971.261 103.52 970.973 102.496C970.717 101.472 970.589 100.096 970.589 98.368V82.288H965.981V81.328H970.589V73.984C972.381 73.92 973.821 73.696 974.909 73.312V81.328ZM1009.56 80.608C1012.28 80.608 1014.47 81.728 1016.14 83.968C1017.83 86.208 1018.68 89.44 1018.68 93.664C1018.68 96.448 1018.2 98.816 1017.24 100.768C1016.28 102.72 1014.99 104.192 1013.35 105.184C1011.75 106.176 1009.96 106.672 1007.98 106.672C1006.79 106.672 1005.64 106.432 1004.52 105.952C1003.43 105.472 1002.47 104.784 1001.64 103.888L998.234 106.768L997.418 106.432C997.642 105.632 997.754 104.704 997.754 103.648V74.176C997.754 72.704 997.482 71.632 996.938 70.96C996.394 70.288 995.45 69.952 994.106 69.952V68.944C995.13 69.04 996.122 69.088 997.082 69.088C999.098 69.088 1000.76 68.864 1002.07 68.416V85.744C1002.78 84.112 1003.79 82.848 1005.1 81.952C1006.44 81.056 1007.93 80.608 1009.56 80.608ZM1007.59 105.568C1009.74 105.568 1011.34 104.608 1012.39 102.688C1013.48 100.736 1014.03 97.728 1014.03 93.664C1014.03 89.76 1013.55 86.848 1012.59 84.928C1011.63 83.008 1010.15 82.048 1008.17 82.048C1006.83 82.048 1005.59 82.576 1004.47 83.632C1003.35 84.656 1002.55 86.112 1002.07 88V103.216C1002.81 103.984 1003.66 104.576 1004.62 104.992C1005.58 105.376 1006.57 105.568 1007.59 105.568ZM1043.18 100.24C1042.61 102 1041.52 103.52 1039.92 104.8C1038.35 106.048 1036.45 106.672 1034.21 106.672C1031.94 106.672 1029.97 106.16 1028.3 105.136C1026.64 104.08 1025.36 102.624 1024.46 100.768C1023.6 98.88 1023.17 96.704 1023.17 94.24C1023.17 91.456 1023.62 89.04 1024.51 86.992C1025.41 84.944 1026.67 83.376 1028.3 82.288C1029.94 81.168 1031.84 80.608 1034.02 80.608C1036.9 80.608 1039.1 81.488 1040.64 83.248C1042.21 84.976 1042.99 87.616 1042.99 91.168H1027.97C1027.87 92.064 1027.82 93.088 1027.82 94.24C1027.82 96.352 1028.16 98.192 1028.83 99.76C1029.54 101.328 1030.45 102.544 1031.57 103.408C1032.72 104.24 1033.92 104.656 1035.17 104.656C1036.7 104.656 1038.06 104.288 1039.25 103.552C1040.43 102.816 1041.42 101.584 1042.22 99.856L1043.18 100.24ZM1033.82 81.52C1032.32 81.52 1031.02 82.256 1029.94 83.728C1028.85 85.2 1028.18 87.376 1027.92 90.256H1038.38C1038.45 87.76 1038.08 85.68 1037.28 84.016C1036.51 82.352 1035.36 81.52 1033.82 81.52ZM399.696 144.608C401.392 144.608 402.912 145.072 404.256 146C405.632 146.928 406.704 148.288 407.472 150.08C408.24 151.872 408.624 154.016 408.624 156.512C408.624 158.976 408.224 161.28 407.424 163.424C406.656 165.568 405.44 167.312 403.776 168.656C402.144 170 400.096 170.672 397.632 170.672C396.416 170.672 395.312 170.432 394.32 169.952C393.328 169.472 392.56 168.848 392.016 168.08V174.224C392.016 175.536 392.4 176.432 393.168 176.912C393.936 177.424 395.088 177.68 396.624 177.68V178.688L395.52 178.64C392.544 178.544 390.608 178.496 389.712 178.496C388.944 178.496 387.216 178.56 384.528 178.688V177.68C385.712 177.68 386.528 177.456 386.976 177.008C387.456 176.592 387.696 175.824 387.696 174.704V150.512C387.696 149.04 387.424 147.968 386.88 147.296C386.336 146.624 385.392 146.288 384.048 146.288V145.28C385.04 145.376 386.032 145.424 387.024 145.424C389.04 145.424 390.704 145.2 392.016 144.752V149.84C392.72 148.176 393.744 146.896 395.088 146C396.432 145.072 397.968 144.608 399.696 144.608ZM397.104 169.568C401.68 169.568 403.968 165.44 403.968 157.184C403.968 149.76 402.112 146.048 398.4 146.048C396.96 146.048 395.664 146.576 394.512 147.632C393.36 148.656 392.528 150.144 392.016 152.096V166.496C392.464 167.424 393.12 168.176 393.984 168.752C394.848 169.296 395.888 169.568 397.104 169.568ZM427.203 144.608C428.483 144.608 429.523 144.976 430.323 145.712C431.155 146.448 431.571 147.344 431.571 148.4C431.571 149.232 431.315 149.952 430.803 150.56C430.323 151.136 429.667 151.424 428.835 151.424C428.131 151.424 427.523 151.2 427.011 150.752C426.531 150.304 426.291 149.696 426.291 148.928C426.291 147.872 426.835 147.008 427.923 146.336C427.699 146.016 427.363 145.856 426.915 145.856C425.667 145.856 424.531 146.352 423.507 147.344C422.483 148.304 421.683 149.488 421.107 150.896C420.531 152.304 420.243 153.632 420.243 154.88V165.056C420.243 166.528 420.659 167.552 421.491 168.128C422.355 168.704 423.635 168.992 425.331 168.992V170L424.179 169.952C420.915 169.856 418.835 169.808 417.939 169.808C417.107 169.808 415.219 169.872 412.275 170V168.992C413.619 168.992 414.563 168.752 415.107 168.272C415.651 167.76 415.923 166.848 415.923 165.536V150.512C415.923 149.04 415.651 147.968 415.107 147.296C414.563 146.624 413.619 146.288 412.275 146.288V145.28C413.299 145.376 414.291 145.424 415.251 145.424C417.267 145.424 418.931 145.2 420.243 144.752V150.752C420.819 149.152 421.731 147.728 422.979 146.48C424.259 145.232 425.667 144.608 427.203 144.608ZM444.472 144.608C447.736 144.608 450.36 145.696 452.344 147.872C454.36 150.016 455.368 153.28 455.368 157.664C455.368 162.048 454.36 165.312 452.344 167.456C450.36 169.6 447.736 170.672 444.472 170.672C441.208 170.672 438.568 169.6 436.552 167.456C434.568 165.312 433.576 162.048 433.576 157.664C433.576 153.28 434.568 150.016 436.552 147.872C438.568 145.696 441.208 144.608 444.472 144.608ZM444.472 145.568C442.552 145.568 441.032 146.56 439.912 148.544C438.792 150.496 438.232 153.536 438.232 157.664C438.232 161.792 438.792 164.832 439.912 166.784C441.032 168.736 442.552 169.712 444.472 169.712C446.392 169.712 447.912 168.736 449.032 166.784C450.152 164.832 450.712 161.792 450.712 157.664C450.712 153.536 450.152 150.496 449.032 148.544C447.912 146.56 446.392 145.568 444.472 145.568ZM480.849 164.768C480.849 166.24 481.121 167.312 481.665 167.984C482.209 168.656 483.153 168.992 484.497 168.992V170C483.505 169.904 482.513 169.856 481.521 169.856C479.505 169.856 477.841 170.08 476.529 170.528V166.256C475.953 167.696 475.089 168.8 473.937 169.568C472.785 170.304 471.377 170.672 469.713 170.672C466.641 170.672 464.225 169.568 462.465 167.36C460.737 165.152 459.889 161.92 459.921 157.664C459.921 154.88 460.401 152.512 461.361 150.56C462.353 148.576 463.665 147.088 465.297 146.096C466.961 145.104 468.785 144.608 470.769 144.608C471.985 144.608 473.089 144.848 474.081 145.328C475.105 145.776 475.921 146.48 476.529 147.44V138.128C476.529 136.656 476.257 135.584 475.713 134.912C475.169 134.24 474.225 133.904 472.881 133.904V132.896C473.905 132.992 474.897 133.04 475.857 133.04C477.873 133.04 479.537 132.816 480.849 132.368V164.768ZM471.105 169.232C472.353 169.232 473.473 168.752 474.465 167.792C475.457 166.832 476.145 165.472 476.529 163.712V149.408C475.665 146.944 473.873 145.712 471.153 145.712C469.169 145.712 467.569 146.736 466.353 148.784C465.137 150.8 464.545 153.76 464.577 157.664C464.545 161.504 465.089 164.4 466.209 166.352C467.329 168.272 468.961 169.232 471.105 169.232ZM508.692 164.816C508.692 166.288 508.964 167.36 509.508 168.032C510.052 168.704 510.996 169.04 512.34 169.04V170.048C511.348 169.952 510.356 169.904 509.364 169.904C507.348 169.904 505.684 170.128 504.372 170.576V164.912C503.604 166.896 502.516 168.352 501.108 169.28C499.7 170.208 498.164 170.672 496.5 170.672C494.324 170.672 492.66 170.064 491.508 168.848C490.932 168.208 490.516 167.392 490.26 166.4C490.036 165.408 489.924 164.128 489.924 162.56V150.512C489.924 149.04 489.652 147.968 489.108 147.296C488.564 146.624 487.62 146.288 486.276 146.288V145.28C487.268 145.376 488.26 145.424 489.252 145.424C491.268 145.424 492.932 145.2 494.244 144.752V163.616C494.244 164.832 494.308 165.824 494.436 166.592C494.596 167.328 494.932 167.936 495.444 168.416C495.988 168.896 496.804 169.136 497.892 169.136C499.108 169.136 500.212 168.752 501.204 167.984C502.196 167.216 502.964 166.176 503.508 164.864C504.084 163.52 504.372 162.048 504.372 160.448V150.512C504.372 149.04 504.1 147.968 503.556 147.296C503.012 146.624 502.068 146.288 500.724 146.288V145.28C501.716 145.376 502.708 145.424 503.7 145.424C505.716 145.424 507.38 145.2 508.692 144.752V164.816ZM526.79 144.608C528.934 144.608 530.79 145.12 532.358 146.144C533.862 147.136 534.614 148.368 534.614 149.84C534.614 150.672 534.374 151.328 533.894 151.808C533.414 152.288 532.806 152.528 532.07 152.528C531.334 152.528 530.71 152.32 530.198 151.904C529.686 151.456 529.43 150.864 529.43 150.128C529.43 149.456 529.622 148.896 530.006 148.448C530.39 147.968 530.87 147.648 531.446 147.488C531.126 146.912 530.55 146.432 529.718 146.048C528.918 145.664 528.054 145.472 527.126 145.472C525.942 145.472 524.838 145.856 523.814 146.624C522.79 147.36 521.942 148.608 521.27 150.368C520.598 152.096 520.262 154.384 520.262 157.232C520.262 161.2 520.902 164.096 522.182 165.92C523.462 167.712 525.126 168.608 527.174 168.608C528.55 168.608 529.846 168.208 531.062 167.408C532.31 166.608 533.334 165.36 534.134 163.664L535.046 164C534.502 165.824 533.478 167.392 531.974 168.704C530.502 170.016 528.582 170.672 526.214 170.672C524.23 170.672 522.422 170.16 520.79 169.136C519.19 168.112 517.926 166.64 516.998 164.72C516.07 162.768 515.606 160.512 515.606 157.952C515.606 155.36 516.07 153.056 516.998 151.04C517.958 149.024 519.286 147.456 520.982 146.336C522.678 145.184 524.614 144.608 526.79 144.608ZM545.862 145.328H552.966V146.288H545.862V164.864C545.862 166.304 546.118 167.344 546.63 167.984C547.174 168.624 547.942 168.944 548.934 168.944C549.926 168.944 550.774 168.544 551.478 167.744C552.182 166.944 552.774 165.632 553.254 163.808L554.214 164.048C553.414 168.464 551.334 170.672 547.974 170.672C546.886 170.672 545.99 170.544 545.286 170.288C544.582 170.032 543.958 169.632 543.414 169.088C542.71 168.384 542.214 167.52 541.926 166.496C541.67 165.472 541.542 164.096 541.542 162.368V146.288H536.934V145.328H541.542V137.984C543.334 137.92 544.774 137.696 545.862 137.312V145.328ZM560.575 133.28C561.407 133.28 562.127 133.584 562.735 134.192C563.343 134.8 563.647 135.52 563.647 136.352C563.647 137.184 563.343 137.904 562.735 138.512C562.127 139.12 561.407 139.424 560.575 139.424C559.743 139.424 559.023 139.12 558.415 138.512C557.807 137.904 557.503 137.184 557.503 136.352C557.503 135.52 557.807 134.8 558.415 134.192C559.023 133.584 559.743 133.28 560.575 133.28ZM563.071 165.536C563.071 166.848 563.343 167.76 563.887 168.272C564.431 168.752 565.375 168.992 566.719 168.992V170C563.775 169.872 561.839 169.808 560.911 169.808C559.983 169.808 558.047 169.872 555.103 170V168.992C556.447 168.992 557.391 168.752 557.935 168.272C558.479 167.76 558.751 166.848 558.751 165.536V150.512C558.751 149.04 558.479 147.968 557.935 147.296C557.391 146.624 556.447 146.288 555.103 146.288V145.28C556.127 145.376 557.119 145.424 558.079 145.424C560.095 145.424 561.759 145.2 563.071 144.752V165.536ZM587.453 145.424C588.861 145.424 590.077 145.376 591.101 145.28V146.24C590.461 146.304 589.885 146.592 589.373 147.104C588.893 147.616 588.429 148.448 587.981 149.6L580.109 170.24H579.293L570.461 148.976C569.981 147.888 569.517 147.168 569.069 146.816C568.621 146.464 568.157 146.288 567.677 146.288V145.28C569.341 145.408 570.749 145.472 571.901 145.472C574.365 145.472 576.445 145.408 578.141 145.28V146.288C576.957 146.288 576.093 146.384 575.549 146.576C575.005 146.736 574.733 147.184 574.733 147.92C574.733 148.368 574.909 149.072 575.261 150.032L581.165 164.624L586.445 150.752C586.797 149.792 586.973 149.04 586.973 148.496C586.973 147.76 586.685 147.232 586.109 146.912C585.565 146.56 584.669 146.336 583.421 146.24V145.28C585.085 145.376 586.429 145.424 587.453 145.424ZM613.06 164.24C612.484 166 611.396 167.52 609.796 168.8C608.228 170.048 606.324 170.672 604.084 170.672C601.812 170.672 599.844 170.16 598.18 169.136C596.516 168.08 595.236 166.624 594.34 164.768C593.476 162.88 593.044 160.704 593.044 158.24C593.044 155.456 593.492 153.04 594.388 150.992C595.284 148.944 596.548 147.376 598.18 146.288C599.812 145.168 601.716 144.608 603.892 144.608C606.772 144.608 608.98 145.488 610.516 147.248C612.084 148.976 612.868 151.616 612.868 155.168H597.844C597.748 156.064 597.7 157.088 597.7 158.24C597.7 160.352 598.036 162.192 598.708 163.76C599.412 165.328 600.324 166.544 601.444 167.408C602.596 168.24 603.796 168.656 605.044 168.656C606.58 168.656 607.94 168.288 609.124 167.552C610.308 166.816 611.3 165.584 612.1 163.856L613.06 164.24ZM603.7 145.52C602.196 145.52 600.9 146.256 599.812 147.728C598.724 149.2 598.052 151.376 597.796 154.256H608.26C608.324 151.76 607.956 149.68 607.156 148.016C606.388 146.352 605.236 145.52 603.7 145.52ZM621.165 164.528C622.413 164.528 623.357 165.04 623.997 166.064C624.541 166.928 624.813 167.984 624.813 169.232C624.813 170.832 624.397 172.272 623.565 173.552C622.765 174.832 621.533 175.856 619.869 176.624L619.437 175.76C620.429 175.344 621.277 174.688 621.981 173.792C622.717 172.896 623.085 171.984 623.085 171.056C623.085 170.672 623.037 170.336 622.941 170.048C622.429 170.464 621.837 170.672 621.165 170.672C620.301 170.672 619.565 170.4 618.957 169.856C618.381 169.28 618.093 168.528 618.093 167.6C618.093 166.736 618.381 166.016 618.957 165.44C619.565 164.832 620.301 164.528 621.165 164.528ZM661.81 164.24C661.234 166 660.146 167.52 658.546 168.8C656.978 170.048 655.074 170.672 652.834 170.672C650.562 170.672 648.594 170.16 646.93 169.136C645.266 168.08 643.986 166.624 643.09 164.768C642.226 162.88 641.794 160.704 641.794 158.24C641.794 155.456 642.242 153.04 643.138 150.992C644.034 148.944 645.298 147.376 646.93 146.288C648.562 145.168 650.466 144.608 652.642 144.608C655.522 144.608 657.73 145.488 659.266 147.248C660.834 148.976 661.618 151.616 661.618 155.168H646.594C646.498 156.064 646.45 157.088 646.45 158.24C646.45 160.352 646.786 162.192 647.458 163.76C648.162 165.328 649.074 166.544 650.194 167.408C651.346 168.24 652.546 168.656 653.794 168.656C655.33 168.656 656.69 168.288 657.874 167.552C659.058 166.816 660.05 165.584 660.85 163.856L661.81 164.24ZM652.45 145.52C650.946 145.52 649.65 146.256 648.562 147.728C647.474 149.2 646.802 151.376 646.546 154.256H657.01C657.074 151.76 656.706 149.68 655.906 148.016C655.138 146.352 653.986 145.52 652.45 145.52ZM704.379 165.536C704.379 166.848 704.651 167.76 705.195 168.272C705.739 168.752 706.683 168.992 708.027 168.992V170C705.083 169.872 703.147 169.808 702.219 169.808C701.291 169.808 699.355 169.872 696.411 170V168.992C697.755 168.992 698.699 168.752 699.243 168.272C699.787 167.76 700.059 166.848 700.059 165.536V150.512C700.059 149.04 699.787 147.968 699.243 147.296C698.699 146.624 697.755 146.288 696.411 146.288H688.683V165.536C688.683 166.848 689.019 167.76 689.691 168.272C690.395 168.752 691.435 168.992 692.811 168.992V170L691.755 169.952C688.971 169.856 687.227 169.808 686.523 169.808C685.595 169.808 683.659 169.872 680.715 170V168.992C682.059 168.992 683.003 168.752 683.547 168.272C684.091 167.76 684.363 166.848 684.363 165.536V146.288H673.275V165.536C673.275 166.848 673.547 167.76 674.091 168.272C674.635 168.752 675.579 168.992 676.923 168.992V170C673.979 169.872 672.059 169.808 671.163 169.808C670.203 169.808 668.251 169.872 665.307 170V168.992C666.651 168.992 667.595 168.752 668.139 168.272C668.683 167.76 668.955 166.848 668.955 165.536V146.288H665.115V145.328H668.955C668.955 141.936 669.739 139.328 671.307 137.504C672.171 136.544 673.243 135.792 674.523 135.248C675.835 134.672 677.291 134.384 678.891 134.384C682.123 134.384 684.539 135.472 686.139 137.648C686.651 136.848 687.211 136.16 687.819 135.584C688.811 134.656 690.059 133.904 691.563 133.328C693.067 132.752 694.811 132.464 696.795 132.464C698.107 132.464 699.323 132.592 700.443 132.848C701.595 133.104 702.523 133.456 703.227 133.904C704.315 134.576 704.859 135.456 704.859 136.544C704.859 137.408 704.555 138.144 703.947 138.752C703.339 139.36 702.619 139.664 701.787 139.664C700.955 139.664 700.235 139.36 699.627 138.752C699.019 138.144 698.715 137.424 698.715 136.592C698.715 136.016 698.859 135.488 699.147 135.008C699.435 134.528 699.819 134.16 700.299 133.904C699.563 133.424 698.395 133.184 696.795 133.184C693.627 133.184 691.355 134.416 689.979 136.88C689.499 137.712 689.163 138.768 688.971 140.048C688.779 141.296 688.683 143.056 688.683 145.328H696.411C698.427 145.328 699.995 145.296 701.115 145.232C702.267 145.136 703.355 144.976 704.379 144.752V165.536ZM684.363 145.328C684.363 142.544 684.811 140.256 685.707 138.464C685.035 137.504 684.155 136.736 683.067 136.16C681.979 135.552 680.779 135.248 679.467 135.248C675.339 135.248 673.275 137.792 673.275 142.88V145.328H684.363ZM722.4 144.608C724.544 144.608 726.4 145.12 727.968 146.144C729.472 147.136 730.224 148.368 730.224 149.84C730.224 150.672 729.984 151.328 729.504 151.808C729.024 152.288 728.416 152.528 727.68 152.528C726.944 152.528 726.32 152.32 725.808 151.904C725.296 151.456 725.04 150.864 725.04 150.128C725.04 149.456 725.232 148.896 725.616 148.448C726 147.968 726.48 147.648 727.056 147.488C726.736 146.912 726.16 146.432 725.328 146.048C724.528 145.664 723.664 145.472 722.736 145.472C721.552 145.472 720.448 145.856 719.424 146.624C718.4 147.36 717.552 148.608 716.88 150.368C716.208 152.096 715.872 154.384 715.872 157.232C715.872 161.2 716.512 164.096 717.792 165.92C719.072 167.712 720.736 168.608 722.784 168.608C724.16 168.608 725.456 168.208 726.672 167.408C727.92 166.608 728.944 165.36 729.744 163.664L730.656 164C730.112 165.824 729.088 167.392 727.584 168.704C726.112 170.016 724.192 170.672 721.824 170.672C719.84 170.672 718.032 170.16 716.4 169.136C714.8 168.112 713.536 166.64 712.608 164.72C711.68 162.768 711.216 160.512 711.216 157.952C711.216 155.36 711.68 153.056 712.608 151.04C713.568 149.024 714.896 147.456 716.592 146.336C718.288 145.184 720.224 144.608 722.4 144.608ZM739.216 133.28C740.048 133.28 740.768 133.584 741.376 134.192C741.984 134.8 742.288 135.52 742.288 136.352C742.288 137.184 741.984 137.904 741.376 138.512C740.768 139.12 740.048 139.424 739.216 139.424C738.384 139.424 737.664 139.12 737.056 138.512C736.448 137.904 736.144 137.184 736.144 136.352C736.144 135.52 736.448 134.8 737.056 134.192C737.664 133.584 738.384 133.28 739.216 133.28ZM741.712 165.536C741.712 166.848 741.984 167.76 742.528 168.272C743.072 168.752 744.016 168.992 745.36 168.992V170C742.416 169.872 740.48 169.808 739.552 169.808C738.624 169.808 736.688 169.872 733.744 170V168.992C735.088 168.992 736.032 168.752 736.576 168.272C737.12 167.76 737.392 166.848 737.392 165.536V150.512C737.392 149.04 737.12 147.968 736.576 147.296C736.032 146.624 735.088 146.288 733.744 146.288V145.28C734.768 145.376 735.76 145.424 736.72 145.424C738.736 145.424 740.4 145.2 741.712 144.752V165.536ZM768.638 164.24C768.062 166 766.974 167.52 765.374 168.8C763.806 170.048 761.902 170.672 759.662 170.672C757.39 170.672 755.422 170.16 753.758 169.136C752.094 168.08 750.814 166.624 749.918 164.768C749.054 162.88 748.622 160.704 748.622 158.24C748.622 155.456 749.07 153.04 749.966 150.992C750.862 148.944 752.126 147.376 753.758 146.288C755.39 145.168 757.294 144.608 759.47 144.608C762.35 144.608 764.558 145.488 766.094 147.248C767.662 148.976 768.446 151.616 768.446 155.168H753.422C753.326 156.064 753.278 157.088 753.278 158.24C753.278 160.352 753.614 162.192 754.286 163.76C754.99 165.328 755.902 166.544 757.022 167.408C758.174 168.24 759.374 168.656 760.622 168.656C762.158 168.656 763.518 168.288 764.702 167.552C765.886 166.816 766.878 165.584 767.678 163.856L768.638 164.24ZM759.278 145.52C757.774 145.52 756.478 146.256 755.39 147.728C754.302 149.2 753.63 151.376 753.374 154.256H763.838C763.902 151.76 763.534 149.68 762.734 148.016C761.966 146.352 760.814 145.52 759.278 145.52ZM788.215 144.608C790.455 144.608 792.151 145.216 793.303 146.432C793.911 147.072 794.343 147.872 794.599 148.832C794.855 149.792 794.983 151.088 794.983 152.72V165.536C794.983 166.848 795.255 167.76 795.799 168.272C796.343 168.752 797.287 168.992 798.631 168.992V170C795.687 169.872 793.767 169.808 792.871 169.808C791.975 169.808 790.183 169.872 787.495 170V168.992C788.679 168.992 789.495 168.752 789.943 168.272C790.423 167.76 790.663 166.848 790.663 165.536V151.664C790.663 149.872 790.407 148.512 789.895 147.584C789.383 146.624 788.343 146.144 786.775 146.144C785.463 146.144 784.295 146.528 783.271 147.296C782.247 148.064 781.447 149.12 780.871 150.464C780.327 151.776 780.055 153.248 780.055 154.88V165.536C780.055 166.848 780.279 167.76 780.727 168.272C781.207 168.752 782.039 168.992 783.223 168.992V170C780.535 169.872 778.743 169.808 777.847 169.808C776.951 169.808 775.031 169.872 772.087 170V168.992C773.431 168.992 774.375 168.752 774.919 168.272C775.463 167.76 775.735 166.848 775.735 165.536V150.512C775.735 149.04 775.463 147.968 774.919 147.296C774.375 146.624 773.431 146.288 772.087 146.288V145.28C773.111 145.376 774.103 145.424 775.063 145.424C777.079 145.424 778.743 145.2 780.055 144.752V150.416C780.855 148.368 781.959 146.896 783.367 146C784.807 145.072 786.423 144.608 788.215 144.608ZM808.456 145.328H815.56V146.288H808.456V164.864C808.456 166.304 808.712 167.344 809.224 167.984C809.768 168.624 810.536 168.944 811.528 168.944C812.52 168.944 813.368 168.544 814.072 167.744C814.776 166.944 815.368 165.632 815.848 163.808L816.808 164.048C816.008 168.464 813.928 170.672 810.568 170.672C809.48 170.672 808.584 170.544 807.88 170.288C807.176 170.032 806.552 169.632 806.008 169.088C805.304 168.384 804.808 167.52 804.52 166.496C804.264 165.472 804.136 164.096 804.136 162.368V146.288H799.528V145.328H804.136V137.984C805.928 137.92 807.368 137.696 808.456 137.312V145.328ZM835.285 170.336C833.269 170.336 831.765 169.84 830.773 168.848C829.813 167.824 829.333 166.416 829.333 164.624C829.333 163.184 829.717 162 830.485 161.072C831.285 160.144 832.213 159.408 833.269 158.864C834.357 158.32 835.781 157.744 837.541 157.136C839.333 156.528 840.661 155.968 841.525 155.456C842.389 154.944 842.821 154.256 842.821 153.392V150.416C842.821 148.56 842.421 147.296 841.621 146.624C840.853 145.92 839.765 145.568 838.357 145.568C836.117 145.568 834.533 146.144 833.605 147.296C834.245 147.456 834.773 147.792 835.189 148.304C835.637 148.816 835.861 149.456 835.861 150.224C835.861 151.024 835.605 151.664 835.093 152.144C834.581 152.592 833.925 152.816 833.125 152.816C832.229 152.816 831.557 152.544 831.109 152C830.661 151.424 830.437 150.736 830.437 149.936C830.437 149.168 830.613 148.528 830.965 148.016C831.349 147.504 831.909 146.992 832.645 146.48C833.413 145.936 834.389 145.488 835.573 145.136C836.757 144.784 838.053 144.608 839.461 144.608C841.957 144.608 843.845 145.2 845.125 146.384C845.925 147.12 846.453 148.016 846.709 149.072C846.997 150.096 847.141 151.456 847.141 153.152V166.496C847.141 167.296 847.253 167.872 847.477 168.224C847.701 168.576 848.085 168.752 848.629 168.752C849.013 168.752 849.365 168.672 849.685 168.512C850.037 168.32 850.405 168.064 850.789 167.744L851.317 168.56C850.485 169.2 849.765 169.664 849.157 169.952C848.581 170.208 847.845 170.336 846.949 170.336C845.413 170.336 844.341 169.952 843.733 169.184C843.125 168.416 842.821 167.376 842.821 166.064C841.861 167.664 840.757 168.784 839.509 169.424C838.261 170.032 836.853 170.336 835.285 170.336ZM837.397 168.416C839.509 168.416 841.317 167.2 842.821 164.768V155.36C842.533 155.808 842.133 156.176 841.621 156.464C841.109 156.752 840.325 157.136 839.269 157.616C838.053 158.128 837.061 158.624 836.293 159.104C835.557 159.552 834.917 160.176 834.373 160.976C833.829 161.776 833.557 162.8 833.557 164.048C833.557 165.488 833.909 166.576 834.613 167.312C835.317 168.048 836.245 168.416 837.397 168.416ZM868.887 144.608C871.127 144.608 872.823 145.216 873.975 146.432C874.583 147.072 875.015 147.872 875.271 148.832C875.527 149.792 875.655 151.088 875.655 152.72V165.536C875.655 166.848 875.927 167.76 876.471 168.272C877.015 168.752 877.959 168.992 879.303 168.992V170C876.359 169.872 874.439 169.808 873.543 169.808C872.647 169.808 870.855 169.872 868.167 170V168.992C869.351 168.992 870.167 168.752 870.615 168.272C871.095 167.76 871.335 166.848 871.335 165.536V151.664C871.335 149.872 871.079 148.512 870.567 147.584C870.055 146.624 869.015 146.144 867.447 146.144C866.135 146.144 864.967 146.528 863.943 147.296C862.919 148.064 862.119 149.12 861.543 150.464C860.999 151.776 860.727 153.248 860.727 154.88V165.536C860.727 166.848 860.951 167.76 861.399 168.272C861.879 168.752 862.711 168.992 863.895 168.992V170C861.207 169.872 859.415 169.808 858.519 169.808C857.623 169.808 855.703 169.872 852.759 170V168.992C854.103 168.992 855.047 168.752 855.591 168.272C856.135 167.76 856.407 166.848 856.407 165.536V150.512C856.407 149.04 856.135 147.968 855.591 147.296C855.047 146.624 854.103 146.288 852.759 146.288V145.28C853.783 145.376 854.775 145.424 855.735 145.424C857.751 145.424 859.415 145.2 860.727 144.752V150.416C861.527 148.368 862.631 146.896 864.039 146C865.479 145.072 867.095 144.608 868.887 144.608ZM903.24 164.768C903.24 166.24 903.512 167.312 904.056 167.984C904.6 168.656 905.544 168.992 906.888 168.992V170C905.896 169.904 904.904 169.856 903.912 169.856C901.896 169.856 900.232 170.08 898.92 170.528V166.256C898.344 167.696 897.48 168.8 896.328 169.568C895.176 170.304 893.768 170.672 892.104 170.672C889.032 170.672 886.616 169.568 884.856 167.36C883.128 165.152 882.28 161.92 882.312 157.664C882.312 154.88 882.792 152.512 883.752 150.56C884.744 148.576 886.056 147.088 887.688 146.096C889.352 145.104 891.176 144.608 893.16 144.608C894.376 144.608 895.48 144.848 896.472 145.328C897.496 145.776 898.312 146.48 898.92 147.44V138.128C898.92 136.656 898.648 135.584 898.104 134.912C897.56 134.24 896.616 133.904 895.272 133.904V132.896C896.296 132.992 897.288 133.04 898.248 133.04C900.264 133.04 901.928 132.816 903.24 132.368V164.768ZM893.496 169.232C894.744 169.232 895.864 168.752 896.856 167.792C897.848 166.832 898.536 165.472 898.92 163.712V149.408C898.056 146.944 896.264 145.712 893.544 145.712C891.56 145.712 889.96 146.736 888.744 148.784C887.528 150.8 886.936 153.76 886.968 157.664C886.936 161.504 887.48 164.4 888.6 166.352C889.72 168.272 891.352 169.232 893.496 169.232ZM927.326 150.368C928.126 148.352 929.23 146.896 930.638 146C932.078 145.072 933.694 144.608 935.486 144.608C937.726 144.608 939.422 145.216 940.574 146.432C941.182 147.072 941.614 147.872 941.87 148.832C942.126 149.792 942.254 151.088 942.254 152.72V165.536C942.254 166.848 942.526 167.76 943.07 168.272C943.614 168.752 944.558 168.992 945.902 168.992V170C942.958 169.872 941.038 169.808 940.142 169.808C939.246 169.808 937.454 169.872 934.766 170V168.992C935.95 168.992 936.766 168.752 937.214 168.272C937.694 167.76 937.934 166.848 937.934 165.536V151.664C937.934 149.872 937.678 148.512 937.166 147.584C936.654 146.624 935.614 146.144 934.046 146.144C932.734 146.144 931.566 146.512 930.542 147.248C929.55 147.984 928.766 149.024 928.19 150.368C927.614 151.68 927.326 153.168 927.326 154.832V165.536C927.326 166.848 927.55 167.76 927.998 168.272C928.478 168.752 929.31 168.992 930.494 168.992V170C927.806 169.872 926.014 169.808 925.118 169.808C924.222 169.808 922.302 169.872 919.358 170V168.992C920.702 168.992 921.646 168.752 922.19 168.272C922.734 167.76 923.006 166.848 923.006 165.536V138.176C923.006 136.704 922.734 135.632 922.19 134.96C921.646 134.288 920.702 133.952 919.358 133.952V132.944C920.382 133.04 921.374 133.088 922.334 133.088C924.35 133.088 926.014 132.864 927.326 132.416V150.368ZM954.441 170.336C952.425 170.336 950.921 169.84 949.929 168.848C948.969 167.824 948.489 166.416 948.489 164.624C948.489 163.184 948.873 162 949.641 161.072C950.441 160.144 951.369 159.408 952.425 158.864C953.513 158.32 954.937 157.744 956.697 157.136C958.489 156.528 959.817 155.968 960.681 155.456C961.545 154.944 961.977 154.256 961.977 153.392V150.416C961.977 148.56 961.577 147.296 960.777 146.624C960.009 145.92 958.921 145.568 957.513 145.568C955.273 145.568 953.689 146.144 952.761 147.296C953.401 147.456 953.929 147.792 954.345 148.304C954.793 148.816 955.017 149.456 955.017 150.224C955.017 151.024 954.761 151.664 954.249 152.144C953.737 152.592 953.081 152.816 952.281 152.816C951.385 152.816 950.713 152.544 950.265 152C949.817 151.424 949.593 150.736 949.593 149.936C949.593 149.168 949.769 148.528 950.121 148.016C950.505 147.504 951.065 146.992 951.801 146.48C952.569 145.936 953.545 145.488 954.729 145.136C955.913 144.784 957.209 144.608 958.617 144.608C961.113 144.608 963.001 145.2 964.281 146.384C965.081 147.12 965.609 148.016 965.865 149.072C966.153 150.096 966.297 151.456 966.297 153.152V166.496C966.297 167.296 966.409 167.872 966.633 168.224C966.857 168.576 967.241 168.752 967.785 168.752C968.169 168.752 968.521 168.672 968.841 168.512C969.193 168.32 969.561 168.064 969.945 167.744L970.473 168.56C969.641 169.2 968.921 169.664 968.313 169.952C967.737 170.208 967.001 170.336 966.105 170.336C964.569 170.336 963.497 169.952 962.889 169.184C962.281 168.416 961.977 167.376 961.977 166.064C961.017 167.664 959.913 168.784 958.665 169.424C957.417 170.032 956.009 170.336 954.441 170.336ZM956.553 168.416C958.665 168.416 960.473 167.2 961.977 164.768V155.36C961.689 155.808 961.289 156.176 960.777 156.464C960.265 156.752 959.481 157.136 958.425 157.616C957.209 158.128 956.217 158.624 955.449 159.104C954.713 159.552 954.073 160.176 953.529 160.976C952.985 161.776 952.713 162.8 952.713 164.048C952.713 165.488 953.065 166.576 953.769 167.312C954.473 168.048 955.401 168.416 956.553 168.416ZM987.227 144.608C988.923 144.608 990.443 145.072 991.787 146C993.163 146.928 994.235 148.288 995.003 150.08C995.771 151.872 996.155 154.016 996.155 156.512C996.155 158.976 995.755 161.28 994.955 163.424C994.187 165.568 992.971 167.312 991.307 168.656C989.675 170 987.627 170.672 985.163 170.672C983.947 170.672 982.843 170.432 981.851 169.952C980.859 169.472 980.091 168.848 979.547 168.08V174.224C979.547 175.536 979.931 176.432 980.699 176.912C981.467 177.424 982.619 177.68 984.155 177.68V178.688L983.051 178.64C980.075 178.544 978.139 178.496 977.243 178.496C976.475 178.496 974.747 178.56 972.059 178.688V177.68C973.243 177.68 974.059 177.456 974.507 177.008C974.987 176.592 975.227 175.824 975.227 174.704V150.512C975.227 149.04 974.955 147.968 974.411 147.296C973.867 146.624 972.923 146.288 971.579 146.288V145.28C972.571 145.376 973.563 145.424 974.555 145.424C976.571 145.424 978.235 145.2 979.547 144.752V149.84C980.251 148.176 981.275 146.896 982.619 146C983.963 145.072 985.499 144.608 987.227 144.608ZM984.635 169.568C989.211 169.568 991.499 165.44 991.499 157.184C991.499 149.76 989.643 146.048 985.931 146.048C984.491 146.048 983.195 146.576 982.043 147.632C980.891 148.656 980.059 150.144 979.547 152.096V166.496C979.995 167.424 980.651 168.176 981.515 168.752C982.379 169.296 983.419 169.568 984.635 169.568ZM1015.12 144.608C1016.81 144.608 1018.33 145.072 1019.68 146C1021.05 146.928 1022.13 148.288 1022.89 150.08C1023.66 151.872 1024.05 154.016 1024.05 156.512C1024.05 158.976 1023.65 161.28 1022.85 163.424C1022.08 165.568 1020.86 167.312 1019.2 168.656C1017.57 170 1015.52 170.672 1013.05 170.672C1011.84 170.672 1010.73 170.432 1009.74 169.952C1008.75 169.472 1007.98 168.848 1007.44 168.08V174.224C1007.44 175.536 1007.82 176.432 1008.59 176.912C1009.36 177.424 1010.51 177.68 1012.05 177.68V178.688L1010.94 178.64C1007.97 178.544 1006.03 178.496 1005.13 178.496C1004.37 178.496 1002.64 178.56 999.95 178.688V177.68C1001.13 177.68 1001.95 177.456 1002.4 177.008C1002.88 176.592 1003.12 175.824 1003.12 174.704V150.512C1003.12 149.04 1002.85 147.968 1002.3 147.296C1001.76 146.624 1000.81 146.288 999.47 146.288V145.28C1000.46 145.376 1001.45 145.424 1002.45 145.424C1004.46 145.424 1006.13 145.2 1007.44 144.752V149.84C1008.14 148.176 1009.17 146.896 1010.51 146C1011.85 145.072 1013.39 144.608 1015.12 144.608ZM1012.53 169.568C1017.1 169.568 1019.39 165.44 1019.39 157.184C1019.39 149.76 1017.53 146.048 1013.82 146.048C1012.38 146.048 1011.09 146.576 1009.93 147.632C1008.78 148.656 1007.95 150.144 1007.44 152.096V166.496C1007.89 167.424 1008.54 168.176 1009.41 168.752C1010.27 169.296 1011.31 169.568 1012.53 169.568ZM1045.85 145.424C1047.26 145.424 1048.48 145.376 1049.5 145.28V146.24C1048.86 146.304 1048.29 146.592 1047.77 147.104C1047.29 147.616 1046.83 148.448 1046.38 149.6L1038.51 170.24L1036.88 174.416C1036.27 175.984 1035.58 177.104 1034.81 177.776C1034.33 178.224 1033.76 178.544 1033.09 178.736C1032.41 178.928 1031.74 179.024 1031.07 179.024C1030.11 179.024 1029.33 178.768 1028.72 178.256C1028.11 177.744 1027.81 177.04 1027.81 176.144C1027.81 175.376 1028.03 174.752 1028.48 174.272C1028.93 173.824 1029.55 173.6 1030.35 173.6C1031.05 173.6 1031.63 173.792 1032.08 174.176C1032.56 174.592 1032.8 175.152 1032.8 175.856C1032.8 176.816 1032.37 177.536 1031.5 178.016C1031.57 178.048 1031.66 178.064 1031.79 178.064C1033.55 178.064 1034.91 176.816 1035.87 174.32L1037.55 169.952L1028.86 148.976C1028.32 147.888 1027.77 147.168 1027.23 146.816C1026.69 146.464 1026.14 146.288 1025.6 146.288V145.28C1026.97 145.472 1028.54 145.568 1030.3 145.568C1031.9 145.568 1033.98 145.472 1036.54 145.28V146.288C1035.39 146.288 1034.54 146.384 1034 146.576C1033.49 146.768 1033.23 147.232 1033.23 147.968C1033.23 148.64 1033.42 149.424 1033.81 150.32L1039.57 164.624L1044.89 150.752C1045.25 149.792 1045.42 149.056 1045.42 148.544C1045.42 147.808 1045.13 147.264 1044.56 146.912C1043.98 146.56 1043.07 146.336 1041.82 146.24V145.28C1043.52 145.376 1044.86 145.424 1045.85 145.424ZM1053.96 164.528C1054.79 164.528 1055.51 164.832 1056.12 165.44C1056.73 166.048 1057.03 166.768 1057.03 167.6C1057.03 168.432 1056.73 169.152 1056.12 169.76C1055.51 170.368 1054.79 170.672 1053.96 170.672C1053.13 170.672 1052.41 170.368 1051.8 169.76C1051.19 169.152 1050.89 168.432 1050.89 167.6C1050.89 166.768 1051.19 166.048 1051.8 165.44C1052.41 164.832 1053.13 164.528 1053.96 164.528Z" fill="#414141"/>
<path d="M275 0H0V412H275V0Z" fill="white"/>
<path d="M0 412C75.939 412 137.5 350.408 137.5 274.43H0V412Z" fill="#FB7560"/>
<path d="M275 138.279C275 62.3012 213.439 0.709106 137.5 0.709106V138.279H275Z" fill="#FFEC83"/>
<path d="M137.5 0C61.5609 0 0 61.5921 0 137.57H137.5V0Z" fill="#F4BAB9"/>
<path d="M137.5 137.57H0V274.43H137.5V137.57Z" fill="#1B4E65"/>
</svg>
